<?xml version="1.0" encoding="UTF-8"?>
<svg width="100px" height="100px" viewBox="0 0 100 100" version="1.1" xmlns="http://www.w3.org/2000/svg" xmlns:xlink="http://www.w3.org/1999/xlink">
    <!-- Generator: Sketch 58 (84663) - https://sketch.com -->
    <title>6</title>
    <desc>Created with Sketch.</desc>
    <g id="Page-1" stroke="none" stroke-width="1" fill="none" fill-rule="evenodd">
        <g id="6">
            <rect id="Rectangle" fill="#F3EDDD" x="0" y="0" width="100" height="100" rx="14"></rect>
            <g id="negotiation" transform="translate(20.000000, 20.000000)" fill-rule="nonzero">
                <path d="M58.3765667,36.2891466 C57.7293262,36.2891466 57.2046665,36.8191502 57.2046665,37.4727187 L57.2046665,40.8877974 C57.2046665,42.6893123 55.7535025,44.1549296 53.9697533,44.1549296 L45.8665323,44.1549296 C45.2192918,44.1549296 44.6946321,44.6849331 44.6946321,45.3385016 L44.6946321,57.632856 L41.4133116,57.632856 L41.4133116,43.7112084 C41.4133116,41.6037401 43.110809,39.889336 45.1974945,39.889336 L50.8674991,39.889336 C51.5147396,39.889336 52.0393993,39.3593325 52.0393993,38.705764 L52.0393993,25.9596402 C52.0393993,24.5400639 53.1684079,23.3824121 54.567188,23.3527045 C54.5812508,23.3528228 54.5950792,23.3537697 54.6092592,23.3537697 C54.627658,23.3537697 54.6458225,23.3525861 54.6642213,23.3523494 C56.0688609,23.3751923 57.2047837,24.5355663 57.2047837,25.9596402 L57.2047837,28.0611907 C57.2047837,28.7148775 57.7294434,29.2447627 58.3766839,29.2447627 C59.0239243,29.2447627 59.5485841,28.7148775 59.5485841,28.0611907 L59.5485841,25.9596402 C59.5485841,24.4770979 58.9025155,23.1448692 57.8806185,22.2325719 C59.1677165,21.2367144 60,19.669665 60,17.9093384 C60,14.9073263 57.5816668,12.4649071 54.6092592,12.4649071 C51.6368516,12.4649071 49.2185184,14.9073263 49.2185184,17.9093384 C49.2185184,19.675938 50.056427,21.2479583 51.3513767,22.2432241 C50.3366283,23.1552846 49.6957161,24.4828974 49.6957161,25.9595218 L49.6957161,37.5220736 L45.1976117,37.5220736 C44.4675179,37.5220736 43.7671903,37.6522665 43.1172545,37.8898094 C43.5349197,37.7088413 43.8276604,37.2899751 43.8276604,36.80187 L43.8276604,32.067582 C43.8276604,31.4140135 43.3030007,30.8840099 42.6557602,30.8840099 L36.7847747,30.8840099 C39.3585018,28.8456622 41.0150999,25.6773583 41.0150999,22.125577 C41.0150999,15.9908865 36.0734313,11 29.9992383,11 C23.9250453,11 18.9833766,15.9908865 18.9833766,22.125577 C18.9833766,25.6773583 20.6399747,28.8456622 23.2137019,30.8840099 L17.3427163,30.8840099 C16.6954759,30.8840099 16.1708162,31.4140135 16.1708162,32.067582 L16.1708162,36.80187 C16.1708162,37.2884365 16.4616818,37.7060007 16.8773548,37.8879157 C16.2290596,37.6515564 15.5306071,37.5220736 14.8026227,37.5220736 L10.3042839,37.5220736 L10.3042839,25.9595218 C10.3042839,24.4828974 9.66337167,23.1551663 8.64862331,22.2432241 C9.94357301,21.24784 10.7814816,19.6758196 10.7814816,17.9093384 C10.7814816,14.9073263 8.36314843,12.4649071 5.39074082,12.4649071 C2.41833321,12.4649071 0,14.9073263 0,17.9093384 C0,19.669665 0.832166316,21.2367144 2.11938147,22.2325719 C1.09760171,23.1448692 0.451415948,24.4770979 0.451415948,25.9596402 L0.451415948,28.3986271 C0.451415948,29.0523139 0.976075658,29.5821991 1.62331613,29.5821991 C2.27055659,29.5821991 2.7952163,29.0523139 2.7952163,28.3986271 L2.7952163,25.9596402 C2.7952163,24.5356847 3.93113915,23.3753107 5.3357787,23.3523494 C5.35417753,23.3525861 5.37222479,23.3537697 5.39074082,23.3537697 C5.40480362,23.3537697 5.41874923,23.3528228 5.43281203,23.3527045 C6.83159208,23.3824121 7.96060072,24.5399456 7.96060072,25.9596402 L7.96060072,38.705764 C7.96060072,39.3593325 8.48526043,39.889336 9.13250089,39.889336 L14.8025055,39.889336 C16.8890738,39.889336 18.5866884,41.6037401 18.5866884,43.7112084 L18.5866884,57.632856 L15.3053679,57.632856 L15.3053679,45.3385016 C15.3053679,44.6849331 14.7807082,44.1549296 14.1334677,44.1549296 L6.03024674,44.1549296 C4.24649748,44.1549296 2.79533349,42.689194 2.79533349,40.8877974 L2.79533349,37.8672032 C2.79533349,37.2136347 2.27067378,36.6836312 1.62343332,36.6836312 C0.976192848,36.6836312 0.451533138,37.2136347 0.451533138,37.8672032 L0.451533138,40.8877974 C0.451533138,42.1084152 0.839080527,43.2388448 1.49487587,44.1623861 C0.908222638,44.2271275 0.451533138,44.7288437 0.451533138,45.3385016 L0.451533138,58.816428 C0.451533138,59.4699964 0.976192848,60 1.62343332,60 L19.7585886,60 C20.405829,60 20.9304887,59.4699964 20.9304887,58.816428 L20.9304887,43.7112084 C20.9304887,41.0700675 19.2832659,38.8111019 16.9722787,37.9242514 C17.0887656,37.9634276 17.2131042,37.9855604 17.3427163,37.9855604 L26.4835377,37.9855604 L26.4835377,52.8985679 L24.8428775,52.8985679 C22.9043202,52.8985679 21.327177,54.4914191 21.327177,56.4492839 L21.327177,58.816428 C21.327177,59.4699964 21.8518367,60 22.4990771,60 L37.4993994,60 C38.1466399,60 38.6712996,59.4699964 38.6712996,58.816428 L38.6712996,56.4492839 C38.6712996,54.4914191 37.0941563,52.8985679 35.155599,52.8985679 L33.5149388,52.8985679 L33.5149388,37.9855604 L42.6557602,37.9855604 C42.79381,37.9855604 42.925766,37.960232 43.0488155,37.915848 C40.7268125,38.7970174 39.0696284,41.0619008 39.0696284,43.7112084 L39.0696284,58.816428 C39.0696284,59.4699964 39.5942882,60 40.2415286,60 L58.3766839,60 C59.0239243,60 59.5485841,59.4699964 59.5485841,58.816428 L59.5485841,45.3385016 C59.5485841,44.7288437 59.0920117,44.2271275 58.5052413,44.1623861 C59.1609195,43.2387265 59.5485841,42.1084152 59.5485841,40.8877974 L59.5485841,37.4727187 C59.5484669,36.8191502 59.0238072,36.2891466 58.3765667,36.2891466 Z M51.5622015,17.9093384 C51.5622015,16.2125695 52.9291059,14.8320511 54.609142,14.8320511 C56.2891781,14.8320511 57.6560825,16.2125695 57.6560825,17.9093384 C57.6560825,19.5875252 56.3188272,20.9553793 54.6641041,20.9852053 C54.6500413,20.985087 54.6360957,20.9841401 54.6220329,20.9841401 C54.6036341,20.9841401 54.5854696,20.9853237 54.5670708,20.9855604 C52.906371,20.9627175 51.5622015,19.5920227 51.5622015,17.9093384 Z M2.34380036,17.9093384 C2.34380036,16.2125695 3.71070472,14.8320511 5.39074082,14.8320511 C7.07077691,14.8320511 8.43768128,16.2125695 8.43768128,17.9093384 C8.43768128,19.5919044 7.09351177,20.9625991 5.43281203,20.9855604 C5.4144132,20.9853237 5.39624875,20.9841401 5.37784991,20.9841401 C5.36378711,20.9841401 5.3498415,20.985087 5.3357787,20.9852053 C3.68105565,20.9554977 2.34380036,19.5876435 2.34380036,17.9093384 Z M2.7952163,46.5220736 L12.9614503,46.5220736 L12.9614503,57.632856 L2.7952163,57.632856 L2.7952163,46.5220736 Z M21.3270598,22.1256953 C21.3270598,17.2962481 25.2172996,13.3672624 29.9991211,13.3672624 C34.7809426,13.3672624 38.6711824,17.2962481 38.6711824,22.1256953 C38.6711824,26.9551426 34.7809426,30.8841283 29.9991211,30.8841283 C25.2172996,30.8841283 21.3270598,26.9551426 21.3270598,22.1256953 Z M36.327382,56.4492839 L36.327382,57.632856 L23.6708601,57.632856 L23.6708601,56.4492839 C23.6708601,55.7966623 24.1965745,55.2657119 24.8427603,55.2657119 L35.1554819,55.2657119 C35.8016676,55.2657119 36.327382,55.7966623 36.327382,56.4492839 Z M31.1710213,52.8985679 L28.8272209,52.8985679 L28.8272209,37.9855604 L31.1710213,37.9855604 L31.1710213,52.8985679 Z M41.4837428,35.6184164 L18.5144993,35.6184164 L18.5144993,33.2512723 L41.4837428,33.2512723 L41.4837428,35.6184164 Z M57.2046665,57.632856 L47.0384325,57.632856 L47.0384325,46.5220736 L57.2046665,46.5220736 L57.2046665,57.632856 Z" id="XMLID_558_" fill="#4D5954"></path>
                <path d="M58,32 C57.737,32 57.479,32.106 57.293,32.293 C57.107,32.479 57,32.737 57,33 C57,33.263 57.107,33.52 57.293,33.707 C57.479,33.8929 57.737,34 58,34 C58.263,34 58.521,33.893 58.707,33.707 C58.893,33.52 59,33.263 59,33 C59,32.737 58.893,32.479 58.707,32.293 C58.521,32.1059 58.263,32 58,32 Z" id="XMLID_761_" fill="#D6BEA7"></path>
                <path d="M2.70785393,33.7069 C2.89394697,33.521 3,33.263 3,33 C3,32.737 2.89394697,32.479 2.70785393,32.293 C2.52176088,32.107 2.26363182,32 2.00050025,32 C1.73636818,32 1.47923962,32.1069 1.29214607,32.293 C1.10605303,32.479 1,32.737 1,33 C1,33.263 1.10605303,33.521 1.29214607,33.7069 C1.47923962,33.8929 1.73636818,34 2.00050025,34 C2.26363182,34 2.52176088,33.893 2.70785393,33.7069 Z" id="XMLID_887_" fill="#D6BEA7"></path>
                <path d="M29.5,19.3919627 C30.1410278,19.3919627 30.6626152,19.8288173 30.6626152,20.3659021 C30.6626152,21.0296567 31.1858388,21.567703 31.8313076,21.567703 C32.4767764,21.567703 33,21.0296567 33,20.3659021 C33,18.8986235 32.0250768,17.6474286 30.6677574,17.1824519 C30.6575898,16.5277108 30.1391579,16 29.5,16 C28.8608421,16 28.3424102,16.5277108 28.3322426,17.1824519 C26.9749232,17.6475488 26,18.8986235 26,20.3659021 C26,22.2283329 27.5701382,23.7434433 29.5,23.7434433 C30.1410278,23.7434433 30.6626152,24.1802979 30.6626152,24.7173827 C30.6626152,25.2544675 30.1411447,25.6913221 29.5,25.6913221 C28.8588553,25.6913221 28.3373848,25.2544675 28.3373848,24.7173827 C28.3373848,24.0536281 27.8141612,23.5155818 27.1686924,23.5155818 C26.5232236,23.5155818 26,24.0536281 26,24.7173827 C26,26.1862237 26.97691,27.43838 28.3364498,27.9022751 C28.3878723,28.5171164 28.8887739,29 29.5,29 C30.1112261,29 30.6121277,28.5172366 30.6635502,27.9022751 C32.0229732,27.43838 33,26.1862237 33,24.7173827 C33,22.8550721 31.4298618,21.3398415 29.5,21.3398415 C28.8589722,21.3398415 28.3373848,20.9029869 28.3373848,20.3659021 C28.3373848,19.8288173 28.8589722,19.3919627 29.5,19.3919627 Z" id="XMLID_889_" fill="#D6BEA7"></path>
                <path d="M30,7 C30.5523,7 31,6.48667507 31,5.85341763 L31,1.14658237 C31,0.513324925 30.5523,0 30,0 C29.4477,0 29,0.513324925 29,1.14658237 L29,5.85341763 C29,6.48667507 29.4477,7 30,7 Z" id="XMLID_908_" fill="#D6BEA7"></path>
                <path d="M23.1081723,9.67540162 C23.3246091,9.89183748 23.6082046,10 23.8918,10 C24.1753955,10 24.4591018,9.89183748 24.6754278,9.67540162 C25.1081907,9.24264071 25.1081907,8.54091419 24.6754278,8.10804246 L20.8919386,4.32457068 C20.4591757,3.89180977 19.7574459,3.89180977 19.3245722,4.32457068 C18.8918093,4.75733158 18.8918093,5.4590581 19.3245722,5.89192983 L23.1081723,9.67540162 Z" id="XMLID_909_" fill="#D6BEA7"></path>
                <path d="M36.128014,10 C36.4167928,10 36.7056844,9.88983144 36.9258782,9.66949433 L40.6698502,5.92466555 C41.1102379,5.48421686 41.1100123,4.77020735 40.669399,4.32998417 C40.2286729,3.88987376 39.5145094,3.88998653 39.0741218,4.33043522 L35.3301498,8.075264 C34.8897621,8.5157127 34.8899877,9.22972221 35.330601,9.66994538 C35.5509076,9.89005697 35.8394608,10 36.128014,10 Z" id="XMLID_910_" fill="#D6BEA7"></path>
            </g>
        </g>
    </g>
</svg>