<?xml version="1.0" encoding="UTF-8"?>
<svg width="100px" height="100px" viewBox="0 0 100 100" version="1.1" xmlns="http://www.w3.org/2000/svg" xmlns:xlink="http://www.w3.org/1999/xlink">
    <!-- Generator: Sketch 58 (84663) - https://sketch.com -->
    <title>5</title>
    <desc>Created with Sketch.</desc>
    <g id="Page-1" stroke="none" stroke-width="1" fill="none" fill-rule="evenodd">
        <g id="5">
            <rect id="Rectangle" fill="#F3EDDD" x="0" y="0" width="100" height="100" rx="14"></rect>
            <g id="portfolio" transform="translate(18.000000, 23.000000)" fill-rule="nonzero">
                <path d="M29.0066061,14 L28.9933939,14 C28.4448418,14 28,14.4477 28,15 C28,15.5523 28.4448418,16 28.9933939,16 L29.0066061,16 C29.5551582,16 30,15.5523 30,15 C30,14.4477 29.5551582,14 29.0066061,14 Z" id="XMLID_125_" fill="#D6BEA7"></path>
                <path d="M23.8903124,14 L15.1096876,14 C14.4969181,14 14,14.4477 14,15 C14,15.5523 14.4969181,16 15.1096876,16 L23.8903124,16 C24.5030819,16 25,15.5523 25,15 C25,14.4477 24.5030819,14 23.8903124,14 Z" id="XMLID_158_" fill="#D6BEA7"></path>
                <path d="M55.4296875,8.15555056 L55.4296875,7.42053585 C55.4296875,5.47016478 53.8525781,3.88341023 51.9140625,3.88341023 C49.9755469,3.88341023 48.3984375,5.47016478 48.3984375,7.42053585 L48.3984375,8.01005679 L44.6532422,8.01005679 L44.6532422,2.7338444 C44.6532422,1.22643936 43.4342578,0 41.9358984,0 L25.3296094,0 C23.8313672,0 22.6122656,1.22643936 22.6122656,2.7338444 L22.6122656,8.01005679 L18.8671875,8.01005679 L18.8671875,7.42053585 C18.8671875,5.47016478 17.2900781,3.88341023 15.3515625,3.88341023 C13.4130469,3.88341023 11.8359375,5.47016478 11.8359375,7.42053585 L11.8359375,8.15555056 C9.22335938,8.74825491 7.265625,11.1003255 7.265625,13.9052662 L7.265625,14.0690351 L7.265625,24.5471802 L7.265625,30.9115304 C2.99789063,32.7489492 0,37.0155481 0,41.9737729 C0,48.6050581 5.36214844,54 11.953125,54 C18.5441016,54 23.90625,48.6050581 23.90625,41.9737729 C23.90625,35.3424876 18.5441016,29.9475457 11.953125,29.9475457 C11.1510938,29.9475457 10.3675781,30.0280743 9.609375,30.1802886 L9.609375,25.7252789 L28.5973828,25.7128989 C28.6736719,28.400407 30.8687109,30.5633593 33.5579297,30.5633593 L33.7074609,30.5633593 C36.3923438,30.5633593 38.5848047,28.4073633 38.6677734,25.7259863 L57.65625,25.7259863 L57.65625,41.7379645 C57.65625,43.6883356 56.0791406,45.2750901 54.140625,45.2750901 L32.109375,45.2750901 C31.4622656,45.2750901 30.9375,45.8029472 30.9375,46.454132 C30.9375,47.1053168 31.4622656,47.6331739 32.109375,47.6331739 L54.140625,47.6331739 C57.3714844,47.6331739 60,44.9885829 60,41.7379645 L60,24.5470623 L60,14.0689172 L60,13.9051483 C60,11.1003255 58.0422656,8.748137 55.4296875,8.15555056 Z M21.5625,41.9737729 C21.5625,47.3048107 17.2517578,51.6419162 11.953125,51.6419162 C6.65449219,51.6419162 2.34375,47.3048107 2.34375,41.9737729 C2.34375,36.642735 6.65449219,32.3056295 11.953125,32.3056295 C17.2517578,32.3056295 21.5625,36.642735 21.5625,41.9737729 Z M50.7421875,7.42053585 C50.7421875,6.77041216 51.2678906,6.24149398 51.9140625,6.24149398 C52.5602344,6.24149398 53.0859375,6.77041216 53.0859375,7.42053585 L53.0859375,8.01005679 L50.7421875,8.01005679 L50.7421875,7.42053585 Z M24.9561328,2.73372649 C24.9561328,2.52656884 25.1237109,2.35796585 25.3297266,2.35796585 L41.9360156,2.35796585 C42.1420313,2.35796585 42.3096094,2.52656884 42.3096094,2.73372649 L42.3096094,8.00993889 L24.9561328,8.00993889 L24.9561328,2.73372649 Z M14.1796875,7.42053585 C14.1796875,6.77041216 14.7053906,6.24149398 15.3515625,6.24149398 C15.9977344,6.24149398 16.5234375,6.77041216 16.5234375,7.42053585 L16.5234375,8.01005679 L14.1796875,8.01005679 L14.1796875,7.42053585 Z M36.328125,25.56882 C36.328125,27.0226966 35.1526172,28.2053935 33.7075781,28.2053935 L33.5580469,28.2053935 C32.113125,28.2053935 30.9376172,27.0226966 30.9376172,25.56882 L30.9376172,21.8326721 L36.3282422,21.8326721 L36.3282422,25.56882 L36.328125,25.56882 Z M38.671875,23.3680226 L38.671875,20.6536302 C38.671875,20.0024454 38.1471094,19.4745884 37.5,19.4745884 L29.765625,19.4745884 C29.1185156,19.4745884 28.59375,20.0024454 28.59375,20.6536302 L28.59375,23.3548152 L9.609375,23.3671951 L9.609375,14.0689172 L9.609375,13.9051483 C9.609375,11.9547772 11.1864844,10.3680226 13.125,10.3680226 L54.140625,10.3680226 C56.0791406,10.3680226 57.65625,11.9547772 57.65625,13.9051483 L57.65625,14.0689172 L57.65625,23.3680226 L38.671875,23.3680226 Z" id="XMLID_161_" fill="#4E5A56"></path>
                <path d="M27,46 C26.737,46 26.479,46.107 26.293,46.293 C26.107,46.479 26,46.737 26,47 C26,47.263 26.1069,47.521 26.293,47.707 C26.4791,47.893 26.737,48 27,48 C27.263,48 27.521,47.893 27.7069,47.707 C27.8929,47.521 28,47.263 28,47 C28,46.737 27.893,46.479 27.7069,46.293 C27.521,46.107 27.263,46 27,46 Z" id="XMLID_167_" fill="#D6BEA7"></path>
                <path d="M11.5,45.365009 C10.7820428,45.365009 10.1979402,44.7976529 10.1979402,44.1003286 C10.1979402,43.3896214 9.7058214,42.813515 9.09897011,42.813515 C8.49211881,42.813515 8,43.3896214 8,44.1003286 C8,45.7963489 9.00863477,47.2379661 10.4023487,47.7441986 C10.4165254,48.4403648 10.9020504,49 11.5,49 C12.0979496,49 12.5834746,48.4403648 12.5976513,47.7441986 C13.9913652,47.2379661 15,45.7963489 15,44.1003286 C15,41.9839063 13.4299014,40.262021 11.5,40.262021 C10.7820428,40.262021 10.1979402,39.6946649 10.1979402,38.9973406 C10.1979402,38.3000163 10.7819329,37.7326602 11.5,37.7326602 C12.2180671,37.7326602 12.8020598,38.3000163 12.8020598,38.9973406 C12.8020598,39.7080477 13.2941786,40.2841542 13.9010299,40.2841542 C14.5078812,40.2841542 15,39.7080477 15,38.9973406 C15,37.301835 13.9920246,35.8606038 12.5989701,35.3539853 L12.5989701,35.2868136 C12.5989701,34.5761064 12.1068513,34 11.5,34 C10.8931487,34 10.4010299,34.5761064 10.4010299,35.2868136 L10.4010299,35.3539853 C9.00808528,35.8606038 8,37.3019637 8,38.9973406 C8,41.1137629 9.57009859,42.8356482 11.5,42.8356482 C12.2179572,42.8356482 12.8020598,43.4030043 12.8020598,44.1003286 C12.8020598,44.7976529 12.2179572,45.365009 11.5,45.365009 Z" id="XMLID_168_" fill="#D6BEA7"></path>
            </g>
        </g>
    </g>
</svg>