<?xml version="1.0" encoding="UTF-8"?>
<svg width="100px" height="100px" viewBox="0 0 100 100" version="1.1" xmlns="http://www.w3.org/2000/svg" xmlns:xlink="http://www.w3.org/1999/xlink">
    <!-- Generator: Sketch 58 (84663) - https://sketch.com -->
    <title>7</title>
    <desc>Created with Sketch.</desc>
    <g id="Page-1" stroke="none" stroke-width="1" fill="none" fill-rule="evenodd">
        <g id="7">
            <rect id="Rectangle" fill="#F3EDDD" x="0" y="0" width="100" height="100" rx="14"></rect>
            <g id="target" transform="translate(19.000000, 22.000000)" fill-rule="nonzero">
                <path d="M38.3044126,14.7090747 C38.4983984,14.903058 38.7525763,15 39.0067542,15 C39.2609322,15 39.5152095,14.903058 39.7090959,14.7090747 C40.096968,14.3212073 40.096968,13.6922762 39.7090959,13.3043095 L39.6956867,13.2909005 C39.3078146,12.9030332 38.6788756,12.9030332 38.2909041,13.2909005 C37.903032,13.6787679 37.903032,14.307699 38.2909041,14.6956657 L38.3044126,14.7090747 Z" id="XMLID_4218_" fill="#DAC4AF"></path>
                <path d="M57.4245318,26.3262712 L61.6452499,22.1170869 C61.9915777,21.7717055 62.0951127,21.2521843 61.9076598,20.8010148 C61.7202069,20.3497246 61.2786995,20.0555466 60.7888758,20.0555466 L52.0397407,20.0555466 C50.8961326,15.3868602 48.495936,11.1327521 45.0647483,7.71081992 C40.0789607,2.73841525 33.4496905,0 26.398409,0 C19.3471276,0 12.7178574,2.73841525 7.73194869,7.71081992 C2.74591891,12.6832246 0,19.2942585 0,26.3262712 C0,33.3582839 2.74591891,39.9694386 7.73194869,44.9417225 C9.21461897,46.4203411 10.8434492,47.6997013 12.5846544,48.7699004 L8.93646692,55.1974958 C8.7243109,55.5713771 8.72721715,56.0295508 8.94421691,56.4005339 C9.16109559,56.7717585 9.5593725,57 9.9902236,57 L16.226545,57 C16.6628453,57 17.0654816,56.7659619 17.2804228,56.38725 L19.859959,51.8423453 C21.9712263,52.3764788 24.1635052,52.6525424 26.398409,52.6525424 C28.6333129,52.6525424 30.8255917,52.3764788 32.936859,51.8423453 L35.5163953,56.38725 C35.7313365,56.7659619 36.1339727,57 36.5702731,57 L42.8065945,57 C43.2374455,57 43.6357225,56.7717585 43.8527222,56.4006547 C44.069722,56.0295508 44.0726282,55.5713771 43.8604722,55.1976165 L40.2122847,48.7700212 C41.9534899,47.6997013 43.5823202,46.4204619 45.0649905,44.9418432 C48.4948461,41.5213602 50.8962537,37.2654407 52.0397407,32.5971165 L60.7889969,32.5971165 C61.2786995,32.5971165 61.720328,32.3028178 61.9077809,31.8516483 C62.0952338,31.4004788 61.9915777,30.8809576 61.645371,30.5355763 L57.4245318,26.3262712 Z M55.210335,25.1186441 L46.7593324,25.1186441 L49.4144311,22.4708008 L57.8655548,22.4708008 L55.210335,25.1186441 Z M15.5204481,54.5847458 L12.0671003,54.5847458 L14.702824,49.9410572 C15.6073933,50.3876377 16.5360603,50.7826525 17.4861608,51.1215127 L15.5204481,54.5847458 Z M40.7297178,54.5847458 L37.2763699,54.5847458 L35.3106572,51.1215127 C36.2607578,50.7826525 37.1894247,50.3876377 38.0939941,49.9410572 L40.7297178,54.5847458 Z M43.3523634,43.2338962 C41.7527167,44.8291716 39.9661014,46.1698792 38.0428926,47.2386292 C38.0191582,47.2501017 37.9951817,47.2609703 37.9718106,47.2741335 C37.9571583,47.2824661 37.943838,47.2920064 37.92967,47.300822 C36.4543865,48.1101737 34.8997866,48.7599979 33.2866985,49.2399089 C33.2232454,49.2524682 33.1605189,49.2710657 33.0986401,49.2942521 C30.948744,49.9147309 28.6985823,50.2372881 26.398409,50.2372881 C24.0982357,50.2372881 21.8480741,49.9147309 19.698178,49.2943729 C19.636178,49.2711864 19.5734515,49.252589 19.5098774,49.2400297 C17.8969104,48.7601186 16.3423105,48.1102945 14.867148,47.3009428 C14.8529801,47.2921271 14.8396598,47.2825869 14.8250074,47.2742542 C14.8016364,47.2610911 14.7777809,47.2502225 14.7540466,47.23875 C12.8308377,46.17 11.0442225,44.8292924 9.44457575,43.2338962 C4.91591657,38.7177331 2.42187239,32.7131695 2.42187239,26.3262712 C2.42187239,19.9393729 4.91591657,13.9348093 9.44445466,9.41864619 C13.9729927,4.90248305 19.9940097,2.41525424 26.398409,2.41525424 C32.8028084,2.41525424 38.8238253,4.90248305 43.3523634,9.41864619 C46.3279969,12.3861483 48.4502837,16.0417564 49.5400052,20.0555466 L48.9129824,20.0555466 C48.5918421,20.0555466 48.2837799,20.1828305 48.0567294,20.4092606 L44.8427837,23.6144237 C44.5184949,21.4188369 43.8067067,19.2839936 42.7318797,17.3424915 C42.4086808,16.7586038 41.6719472,16.546786 41.0864596,16.8689809 C40.5009719,17.1912966 40.2884526,17.9260169 40.6116515,18.5099047 C41.7611932,20.5862987 42.4033527,22.8438369 42.5676767,25.1187648 L37.2284169,25.1187648 C36.9588625,22.6725953 35.8749535,20.4064831 34.104807,18.6411737 C32.0463365,16.5882076 29.3094996,15.4576271 26.398409,15.4576271 C23.4873184,15.4576271 20.7504815,16.5882076 18.6921322,18.6409322 C16.6336617,20.6938983 15.4999833,23.4231356 15.4999833,26.3262712 C15.4999833,29.2294068 16.6336617,31.9587648 18.6920111,34.0114894 C20.7504815,36.0643347 23.4873184,37.1949153 26.398409,37.1949153 C29.3094996,37.1949153 32.0463365,36.0643347 34.1046859,34.0116102 C35.8748324,32.2463008 36.9587414,29.9801886 37.2282958,27.5338983 L42.5623486,27.5338983 C42.2735403,31.3089407 40.6761944,34.9723983 37.8722716,37.7687797 C34.8075132,40.8252839 30.7325918,42.5084746 26.398409,42.5084746 C22.0642262,42.5084746 17.9893048,40.8252839 14.9245464,37.7687797 C11.8596669,34.7123962 10.171864,30.6487309 10.171864,26.3262712 C10.171864,22.0038114 11.8596669,17.9401462 14.9245464,14.8837627 C20.0082987,9.81390254 27.9496183,8.6905678 34.2363146,12.1519894 C34.8216812,12.4741843 35.5584148,12.2623665 35.8817347,11.6784788 C36.2049336,11.0945911 35.9924143,10.3599915 35.4069267,10.0375551 C31.9381999,8.1276928 27.8538332,7.36652542 23.9065445,7.89474153 C19.827506,8.44034746 16.1293068,10.2665212 13.2120404,13.1759364 C9.68979033,16.6885614 7.74999164,21.358697 7.74999164,26.3262712 C7.74999164,31.2938453 9.68979033,35.9641017 13.2119193,39.4766059 C16.7341694,42.9892309 21.417223,44.9237288 26.398409,44.9237288 C31.3795951,44.9237288 36.0626486,42.9892309 39.5847776,39.4767267 C42.4468253,36.6226208 44.262503,33.0189407 44.8470219,29.0425869 L48.0566083,32.2434025 C48.2836589,32.4698326 48.591721,32.5971165 48.9128613,32.5971165 L49.5400052,32.5971165 C48.4499204,36.6106653 46.326786,40.2676017 43.3523634,43.2338962 Z M30.3533266,24.0491695 C30.0189872,23.4714407 29.2783786,23.2736314 28.6991878,23.607178 L25.7929409,25.2804661 C25.4182773,25.4961483 25.1874728,25.894786 25.1874728,26.3262712 C25.1874728,26.7577564 25.4182773,27.1563941 25.7929409,27.3720763 L28.6991878,29.0453644 C28.8899102,29.1551377 29.0980702,29.2073072 29.303566,29.2073072 C29.7220656,29.2073072 30.1290613,28.9907797 30.3533266,28.6033729 C30.5498616,28.2640297 30.5611233,27.8694979 30.4205336,27.5338983 L34.7887437,27.5338983 C34.5320253,29.333625 33.7041082,30.9954407 32.3921799,32.3036631 L32.3921799,32.3036631 C30.7912012,33.9003877 28.6626175,34.779661 26.398409,34.779661 C24.1342005,34.779661 22.0056169,33.9003877 20.4045171,32.3036631 C18.8035383,30.7070593 17.9218557,28.5842924 17.9218557,26.3262712 C17.9218557,24.06825 18.8035383,21.9454831 20.4046381,20.3487585 C22.0056169,18.7521547 24.1342005,17.8728814 26.398409,17.8728814 C28.6626175,17.8728814 30.7912012,18.7521547 32.392301,20.3488792 C33.7041082,21.6571017 34.5321463,23.3189174 34.7887437,25.1186441 L30.4206547,25.1186441 C30.5611233,24.7829237 30.5498616,24.3885127 30.3533266,24.0491695 Z M49.4144311,30.1817415 L46.7593324,27.5338983 L55.210335,27.5338983 L57.8655548,30.1817415 L49.4144311,30.1817415 Z" id="XMLID_4221_" fill="#4D5954"></path>
            </g>
        </g>
    </g>
</svg>