<?xml version="1.0" encoding="UTF-8"?>
<svg width="100px" height="115px" viewBox="0 0 100 115" version="1.1" xmlns="http://www.w3.org/2000/svg" xmlns:xlink="http://www.w3.org/1999/xlink">
    <!-- Generator: Sketch 58 (84663) - https://sketch.com -->
    <title>4</title>
    <desc>Created with Sketch.</desc>
    <g id="Page-1" stroke="none" stroke-width="1" fill="none" fill-rule="evenodd">
        <g id="4">
            <circle id="Oval" fill="#FAF7F0" cx="50" cy="65" r="50"></circle>
            <g id="Group" transform="translate(35.000000, 0.000000)">
                <circle id="Oval" fill="#4D5954" cx="15" cy="15" r="15"></circle>
                <text id="04" font-family="Roboto-Black, Roboto" font-size="13" font-weight="700" fill="#FFFFFF">
                    <tspan x="7" y="20">04</tspan>
                </text>
            </g>
            <g id="growth" transform="translate(22.000000, 37.000000)" fill-rule="nonzero">
                <g id="XMLID_1859_" transform="translate(0.000000, 38.000000)" fill="#4E5A56">
                    <path d="M12.768112,17.9926909 L1.120112,17.9926909 C0.501536,17.9926909 0.000112,17.5041818 0.000112,16.9017818 L0.000112,1.19269091 C0.000112,0.590290909 0.501536,0.101781818 1.120112,0.101781818 L12.768112,0.101781818 C13.386688,0.101781818 13.888112,0.590290909 13.888112,1.19269091 L13.888112,16.9017818 C13.888112,17.5041818 13.386688,17.9926909 12.768112,17.9926909 Z M2.240112,15.8108727 L11.648112,15.8108727 L11.648112,2.2836 L2.240112,2.2836 L2.240112,15.8108727 Z" id="XMLID_3778_"></path>
                </g>
                <g id="XMLID_1138_" transform="translate(21.000000, 44.000000)" fill="#4E5A56">
                    <path d="M0.95247619,1.99333333 C0.702,1.99333333 0.456285714,1.89142857 0.279142857,1.71428571 C0.102,1.53714286 9.52380952e-05,1.29142857 9.52380952e-05,1.04095238 C9.52380952e-05,0.79047619 0.102,0.544761905 0.279142857,0.367619048 C0.456285714,0.190571429 0.702,0.0885714286 0.95247619,0.0885714286 C1.20295238,0.0885714286 1.44866667,0.19047619 1.62580952,0.367619048 C1.80295238,0.544761905 1.90485714,0.79047619 1.90485714,1.04095238 C1.90485714,1.29142857 1.80295238,1.53714286 1.62580952,1.71428571 C1.44866667,1.89142857 1.20295238,1.99333333 0.95247619,1.99333333 Z" id="XMLID_3777_"></path>
                </g>
                <g id="XMLID_1133_" transform="translate(21.000000, 32.000000)" fill="#4E5A56">
                    <path d="M12.768112,23.992724 L1.120112,23.992724 C0.501536,23.992724 0.000112,23.5064253 0.000112,22.9067511 L0.000112,17.4768869 C0.000112,16.8772127 0.501536,16.390914 1.120112,16.390914 C1.738688,16.390914 2.240112,16.8772127 2.240112,17.4768869 L2.240112,21.8207783 L11.648112,21.8207783 L11.648112,2.27326697 L2.240112,2.27326697 L2.240112,8.78910407 C2.240112,9.38877828 1.738688,9.87507692 1.120112,9.87507692 C0.501536,9.87507692 0.000112,9.38877828 0.000112,8.78910407 L0.000112,1.18729412 C0.000112,0.58761991 0.501536,0.101321267 1.120112,0.101321267 L12.768112,0.101321267 C13.386688,0.101321267 13.888112,0.58761991 13.888112,1.18729412 L13.888112,22.9067511 C13.888112,23.5064253 13.386688,23.992724 12.768112,23.992724 Z" id="XMLID_3776_"></path>
                </g>
                <g id="XMLID_1129_" transform="translate(43.000000, 37.000000)" fill="#4E5A56">
                    <path d="M0.95247619,1.92771429 C0.702,1.92771429 0.456285714,1.82580952 0.279142857,1.64857143 C0.102,1.47047619 9.52380952e-05,1.22580952 9.52380952e-05,0.974285714 C9.52380952e-05,0.723809524 0.102,0.479142857 0.279142857,0.301047619 C0.456285714,0.123904762 0.702,0.0219047619 0.95247619,0.0219047619 C1.20295238,0.0219047619 1.44866667,0.123809524 1.62580952,0.301047619 C1.80295238,0.479142857 1.90485714,0.723809524 1.90485714,0.974285714 C1.90485714,1.22580952 1.80295238,1.47047619 1.62580952,1.64857143 C1.44866667,1.82571429 1.20295238,1.92771429 0.95247619,1.92771429 Z" id="XMLID_3775_"></path>
                </g>
                <g id="XMLID_1128_" transform="translate(42.000000, 23.000000)" fill="#4E5A56">
                    <path d="M12.768112,32.992703 L1.120112,32.992703 C0.501536,32.992703 0.000112,32.505 0.000112,31.9035941 L0.000112,18.8342871 C0.000112,18.2328812 0.501536,17.7451782 1.120112,17.7451782 C1.738688,17.7451782 2.240112,18.2328812 2.240112,18.8342871 L2.240112,30.8144851 L11.648112,30.8144851 L11.648112,2.27983168 L2.240112,2.27983168 L2.240112,9.94389109 C2.240112,10.545297 1.738688,11.033 1.120112,11.033 C0.501536,11.033 0.000112,10.545297 0.000112,9.94389109 L0.000112,1.19072277 C0.000112,0.589316832 0.501536,0.101613861 1.120112,0.101613861 L12.768112,0.101613861 C13.386688,0.101613861 13.888112,0.589316832 13.888112,1.19072277 L13.888112,31.9035941 C13.888112,32.505 13.386688,32.992703 12.768112,32.992703 Z" id="XMLID_3774_"></path>
                </g>
                <g id="XMLID_1638_" transform="translate(0.000000, 1.000000)" fill="#D6BEA7">
                    <path d="M3.37080702,27.9927287 L1.0917271,27.9927287 C0.541442495,27.9927287 0.0772865497,27.5856434 0.00862378168,27.0427907 C-0.0600389864,26.5000465 0.288405458,25.9913798 0.821442495,25.855938 L3.25389474,25.238093 C17.8954386,21.5187597 31.7311501,14.4800155 43.3423626,4.85387597 L40.3690136,1.89781395 C40.0568109,1.58742636 39.9633684,1.12065116 40.1323509,0.715085271 C40.3013333,0.309627907 40.6993372,0.0451472868 41.1408967,0.0451472868 L54.7993294,0.0451472868 C55.40223,0.0451472868 55.8909474,0.531131783 55.8909474,1.1304186 L55.8909474,14.7093333 C55.8909474,15.1483256 55.6249201,15.5440155 55.2170916,15.711907 C54.8088265,15.8800155 54.3394308,15.7870078 54.0274464,15.4767287 L50.7820663,12.2503256 C44.1116257,17.2367132 36.7280312,21.1201395 28.8214425,23.7992403 C20.6093099,26.581876 12.0464405,27.9927287 3.37080702,27.9927287 Z M43.7762807,2.2155814 L45.7261287,4.1539845 C45.9413957,4.368 46.0568889,4.66167442 46.0449903,4.96403101 C46.0330916,5.2663876 45.8946745,5.55007752 45.6631423,5.74662016 C39.635883,10.8648682 33.0127096,15.299938 25.9777778,18.9288682 C20.8854893,21.5555504 15.5708382,23.7633178 10.1117661,25.5224341 C24.6162027,24.2332403 38.6468772,18.8184961 50.2128967,9.9528062 C50.6475789,9.61973643 51.2633606,9.65913178 51.6513216,10.0449457 L53.7076023,12.0892713 L53.7076023,2.2155814 L43.7762807,2.2155814 Z" id="XMLID_3771_"></path>
                </g>
                <g id="XMLID_2201_" fill="#D6BEA7">
                    <path d="M9.94546448,8.89650273 C9.39836066,8.89650273 8.93617486,8.52327869 8.93617486,8.08142077 C8.93617486,7.63967213 9.39836066,7.26644809 9.94546448,7.26644809 C10.4925683,7.26644809 10.9547541,7.63967213 10.9547541,8.08142077 C10.9547541,8.68491803 11.4440437,9.17431694 12.0476503,9.17431694 C12.6512568,9.17431694 13.1405464,8.68491803 13.1405464,8.08142077 C13.1405464,6.7863388 12.2624044,5.68043716 11.0359563,5.26087432 C11.0115847,4.6789071 10.5334426,4.21409836 9.94535519,4.21409836 C9.35726776,4.21409836 8.87912568,4.6789071 8.8547541,5.26087432 C7.6284153,5.68043716 6.75016393,6.7863388 6.75016393,8.08142077 C6.75016393,9.73617486 8.18349727,11.0822951 9.9452459,11.0822951 C10.4923497,11.0822951 10.9545355,11.4555191 10.9545355,11.8972678 C10.9545355,12.3390164 10.4923497,12.7122404 9.9452459,12.7122404 C9.39814208,12.7122404 8.93595628,12.3390164 8.93595628,11.8972678 C8.93595628,11.2937705 8.44666667,10.8043716 7.84306011,10.8043716 C7.23945355,10.8043716 6.75016393,11.2937705 6.75016393,11.8972678 C6.75016393,13.1939891 7.63060109,14.3009836 8.85934426,14.7193443 C8.91945355,15.2661202 9.38240437,15.691694 9.9452459,15.691694 C10.5080874,15.691694 10.9710383,15.2661202 11.0311475,14.7193443 C12.26,14.3009836 13.1403279,13.1939891 13.1403279,11.8972678 C13.1405464,10.242623 11.7072131,8.89650273 9.94546448,8.89650273 Z" id="XMLID_169_"></path>
                    <g id="XMLID_2193_">
                        <path d="M9.94546448,19.8981421 C4.46153005,19.8981421 0.000109289617,15.4367213 0.000109289617,9.95278689 C0.000109289617,4.46885246 4.46153005,0.00743169399 9.94546448,0.00743169399 C15.4293989,0.00743169399 19.8908197,4.46885246 19.8908197,9.95278689 C19.8908197,15.4367213 15.4292896,19.8981421 9.94546448,19.8981421 Z M9.94546448,2.19322404 C5.66688525,2.19322404 2.18590164,5.67420765 2.18590164,9.95278689 C2.18590164,14.2313661 5.66688525,17.7123497 9.94546448,17.7123497 C14.2240437,17.7123497 17.7050273,14.2313661 17.7050273,9.95278689 C17.7050273,5.67420765 14.2240437,2.19322404 9.94546448,2.19322404 Z" id="XMLID_3764_"></path>
                    </g>
                </g>
            </g>
        </g>
    </g>
</svg>