<?xml version="1.0" encoding="UTF-8"?>
<svg width="100px" height="115px" viewBox="0 0 100 115" version="1.1" xmlns="http://www.w3.org/2000/svg" xmlns:xlink="http://www.w3.org/1999/xlink">
    <!-- Generator: Sketch 58 (84663) - https://sketch.com -->
    <title>3</title>
    <desc>Created with Sketch.</desc>
    <g id="Page-1" stroke="none" stroke-width="1" fill="none" fill-rule="evenodd">
        <g id="3">
            <circle id="Oval" fill="#FAF7F0" cx="50" cy="65" r="50"></circle>
            <g id="Group" transform="translate(35.000000, 0.000000)">
                <circle id="Oval" fill="#4D5954" cx="15" cy="15" r="15"></circle>
                <text id="03" font-family="Roboto-Black, Roboto" font-size="13" font-weight="700" fill="#FFFFFF">
                    <tspan x="7" y="20">03</tspan>
                </text>
            </g>
            <g id="deal" transform="translate(23.000000, 38.000000)" fill-rule="nonzero">
                <path d="M53.691096,27.9816802 C53.2791186,27.5704915 52.6114747,27.5704915 52.1993918,27.9816802 L46.8655181,33.3080688 L38.003257,24.4582443 L50.7344776,11.7447842 C51.1463496,11.3334902 51.1463496,10.6665725 50.7344776,10.2551732 C50.3225002,9.8439846 49.6548563,9.8439846 49.2427734,10.2551732 L36.5116582,22.9686333 L36.1256271,22.583144 C35.7136497,22.1719553 35.0460057,22.1719553 34.6339228,22.583144 L30.8630531,26.348722 C30.6608614,26.5506299 30.5585526,26.8140477 30.5548611,27.078624 C28.8720398,27.4189289 27.2371032,27.9683039 25.692557,28.7067372 L23.1772376,28.7067372 C22.9116566,28.7067372 22.6490289,28.6602889 22.4009565,28.5732905 L23.1369469,27.8383329 C23.5488188,27.4270389 23.5488188,26.7601213 23.1369469,26.348722 L19.3660772,22.583144 C18.9540997,22.1719553 18.2864558,22.1719553 17.8743729,22.583144 L17.4883418,22.9686333 L1.8061983,7.30839149 C1.39422086,6.89720284 0.726576943,6.89720284 0.314494037,7.30839149 C-0.0973779224,7.71968546 -0.0973779224,8.38660311 0.314494037,8.79800241 L15.996743,24.4582443 L7.13448195,33.3080688 L1.80060823,27.9816802 C1.38863079,27.5704915 0.720986875,27.5704915 0.30890397,27.9816802 C-0.10296799,28.3929742 -0.10296799,29.0598918 0.30890397,29.4712911 L5.64288316,34.7975744 L5.34745336,35.0925896 C4.93558141,35.5038836 4.93558141,36.1708012 5.34745336,36.5822005 L9.1183231,40.3477785 C9.32431181,40.5533729 9.59421715,40.6562754 9.86412249,40.6562754 C10.1340278,40.6562754 10.4039332,40.5533729 10.6099219,40.3477785 L11.2433926,39.7151968 L14.2196289,42.6872566 C13.7673608,43.8466737 14.0829359,45.2154769 15.0957929,46.0485974 C15.6317011,46.4893823 16.2900634,46.7243623 16.9753213,46.7243623 C16.9885054,46.7243623 17.001795,46.7235197 17.0149791,46.7234144 C17.136484,47.386751 17.4831736,48.0124866 18.0439734,48.4739153 C18.5951752,48.9273392 19.2626082,49.147995 19.9263496,49.147995 C19.9385845,49.147995 19.9507138,49.1471524 19.9629487,49.1470471 C20.0841372,49.8110156 20.4309323,50.4372779 20.992154,50.8990225 C21.5280622,51.3398075 22.1864245,51.5747874 22.8716824,51.5747874 C22.8844446,51.5747874 22.8972068,51.5740502 22.9099691,51.5738395 C23.03506,52.2606636 23.3946174,52.8753401 23.9403345,53.324235 C24.4762427,53.76502 25.134605,54 25.8198629,54 C25.9162652,54 26.0131949,53.9952604 26.1104409,53.9858865 C26.8986405,53.9098418 27.6100557,53.5318305 28.1134782,52.9214724 L28.7080293,52.2007337 C29.0426951,52.3229106 29.3991937,52.3871589 29.7655014,52.3871589 C29.780584,52.3871589 29.7955612,52.3870535 29.8106438,52.3868429 C30.6330166,52.3751518 31.4015981,52.0443261 31.9748437,51.4553489 C32.2851452,51.1365303 32.5172912,50.762416 32.6637932,50.356283 C32.9926579,50.4737203 33.3424063,50.5352301 33.7014363,50.5352301 C33.7164135,50.5352301 33.7314961,50.5351248 33.7465787,50.5349141 C34.569057,50.523223 35.3376385,50.192292 35.9107787,49.6033148 C36.418842,49.081219 36.7191235,48.4115629 36.7727038,47.6942999 C37.5549968,47.6569095 38.2826549,47.3305075 38.8312198,46.7669136 C39.4044654,46.1778311 39.7137122,45.4012702 39.7020047,44.5799461 C39.6926176,43.9253515 39.4796676,43.3051981 39.0941639,42.7896324 L42.4648692,39.4236573 L43.3901836,40.3476732 C43.5961723,40.5532675 43.8660776,40.65617 44.135983,40.65617 C44.4058883,40.65617 44.6757937,40.5532675 44.8817824,40.3476732 L48.6526521,36.5820952 C49.0645241,36.1708012 49.0645241,35.5038836 48.6526521,35.0924843 L48.3572223,34.7974691 L53.691096,29.4710805 C54.102968,29.0598918 54.102968,28.3929742 53.691096,27.9816802 Z M9.86412249,38.1134148 L7.58495701,35.8374477 L18.6202778,24.8175077 L20.8994432,27.0934748 L9.86412249,38.1134148 Z M16.129639,43.8458311 C16.1077006,43.6187505 16.1756252,43.3967255 16.3208615,43.2206222 L17.033015,42.3573788 C17.1782513,42.1812755 17.3833962,42.0722641 17.6107959,42.0503565 C17.6388518,42.0477234 17.6666966,42.0463542 17.6945415,42.0463542 C17.8923033,42.0463542 18.0822601,42.1141835 18.236778,42.2413107 C18.4131288,42.3863432 18.5222934,42.5910949 18.5442318,42.8181755 C18.5661701,43.0452561 18.4982455,43.2672811 18.3530093,43.4433845 L17.6408557,44.3066279 C17.3409961,44.6698936 16.8010799,44.7222401 16.4371982,44.4228013 C16.2607419,44.2775582 16.1515774,44.0728064 16.129639,43.8458311 Z M19.269042,45.6458347 L19.9811955,44.7825914 C20.1500578,44.577945 20.3950715,44.471988 20.6419837,44.471988 C20.8333117,44.471988 21.0260108,44.5356043 21.1848531,44.6665232 C21.3612039,44.8115557 21.4703684,45.0164128 21.4923068,45.2434934 C21.5142452,45.470574 21.4463206,45.692599 21.3010843,45.8687024 L20.5889308,46.7319457 C20.2892821,47.0952115 19.749155,47.147558 19.3852732,46.8481192 C19.021286,46.548575 18.9691824,46.0093112 19.269042,45.6458347 Z M22.0260001,48.6962563 C22.0040617,48.4691756 22.0719863,48.2471506 22.2172226,48.0710473 L22.9293761,47.2078039 C23.0746124,47.0317006 23.2797573,46.9226892 23.507157,46.9007816 C23.5352128,46.8981485 23.5630577,46.8967793 23.5909026,46.8967793 C23.7886644,46.8967793 23.9786212,46.9646086 24.1331391,47.0917358 C24.3094899,47.2367683 24.4186545,47.44152 24.4405928,47.6686006 C24.4625312,47.8956812 24.3946066,48.1177062 24.2493703,48.2938096 L23.5372168,49.157053 C23.2374626,49.5202134 22.6973355,49.5727706 22.3335593,49.2732264 C22.157103,49.1279833 22.0479384,48.9232315 22.0260001,48.6962563 Z M26.4853974,51.5821602 C26.3401611,51.7582635 26.1350161,51.8672749 25.9076164,51.8891825 C25.6804276,51.9107741 25.4578797,51.8432608 25.2816343,51.6982283 C25.1052835,51.5531958 24.996119,51.3483388 24.9741806,51.1212582 C24.9522422,50.8941775 25.0201668,50.6721525 25.1654031,50.4960492 L25.8775566,49.6328058 C26.0227929,49.4567025 26.2279378,49.3476911 26.4553376,49.3257836 C26.4833934,49.3231504 26.5112382,49.3217812 26.5391886,49.3217812 C26.7368449,49.3217812 26.9268018,49.3896105 27.0813197,49.5167377 C27.2576705,49.6617702 27.366835,49.8666272 27.3887734,50.0937078 C27.4107118,50.3207885 27.3427872,50.5428135 27.1975509,50.7189168 L26.4853974,51.5821602 Z M37.3185264,45.298789 C36.9458904,45.6817505 36.330772,45.6903872 35.9473778,45.3184848 C35.8932701,45.2660329 35.8349436,45.2208485 35.7736638,45.1821943 L29.9287735,39.4715802 C29.5124717,39.0646045 28.8446168,39.0720826 28.4372802,39.4878002 C28.0299436,39.9035179 28.0371157,40.5703302 28.453523,40.9772005 L34.3785728,46.7661763 C34.5643107,46.9463874 34.6686235,47.1881081 34.672315,47.4466809 C34.6760066,47.7052537 34.5785495,47.9498183 34.3979798,48.1354008 C34.2175155,48.3208781 33.9754551,48.4250445 33.7165189,48.4287309 C33.4580047,48.4279936 33.2126745,48.335097 33.0252491,48.1533061 L29.0563011,44.3178976 C29.0190691,44.2818765 28.9793058,44.2503843 28.9384878,44.2209987 L27.3673624,42.6963145 C26.9495839,42.2908134 26.2817291,42.300398 25.8758691,42.7174848 C25.4697981,43.134677 25.4793961,43.8014893 25.8970691,44.2068851 L30.4425324,48.6181051 C30.6282703,48.7983161 30.732583,49.0400369 30.7362746,49.2986097 C30.7399662,49.5572878 30.6425091,49.8018524 30.4620449,49.9873296 C30.2814751,50.1729122 30.0394147,50.2770786 29.7804785,50.2808086 C29.6835489,50.2823448 29.5890451,50.2697059 29.4990766,50.2441119 C29.5183782,49.3674922 29.1510158,48.4905566 28.422303,47.8910469 C27.8609759,47.4294076 27.1790931,47.2094891 26.5033278,47.2177045 C26.3820339,46.5538412 26.0353442,45.927579 25.4741225,45.4658344 C24.927878,45.0166234 24.2547495,44.7821701 23.5549363,44.791228 C23.4334314,44.1277861 23.0868472,43.5019452 22.525942,43.0406218 C21.9796974,42.5914109 21.3064634,42.3570628 20.6067557,42.3660154 C20.4852509,41.7025735 20.1385612,41.0768379 19.5777614,40.6154093 C18.9664401,40.1126932 18.19596,39.8781345 17.407655,39.9537579 C16.6494098,40.0268534 15.9627807,40.3801133 15.4633662,40.9503426 L12.7348859,38.2256912 L20.8287763,30.143159 C21.2855798,30.4249033 21.7912172,30.6238622 22.3184766,30.7282392 C21.5276403,31.3100543 20.7769891,31.9483235 20.074961,32.6396766 L19.4818865,33.2238088 C18.1537708,34.5318395 18.1281409,36.685735 19.4246147,38.0251525 C20.0831879,38.7054464 20.9696882,39.0678696 21.8767558,39.0678696 C22.3034995,39.0677643 22.7348859,38.9875067 23.1488653,38.8224625 L27.751284,36.9872803 L30.1096597,36.9872803 L37.298803,43.9295645 C37.4845409,44.1097755 37.5888537,44.3514963 37.5926522,44.6100691 C37.5963422,44.8687472 37.4989907,45.1133117 37.3185264,45.298789 Z M37.6063622,41.2962298 L33.1442226,36.9872803 L33.3025375,36.9872803 C33.8849593,36.9872803 34.3572672,36.5156352 34.3572672,35.9340307 C34.3572672,35.3524263 33.8849593,34.8807811 33.3025375,34.8807811 L27.5485649,34.8807811 C27.4145088,34.8807811 27.2819293,34.9062697 27.1574711,34.9558778 L22.3666778,36.8661566 C21.8714822,37.0638516 21.312159,36.9439918 20.941527,36.5611355 C20.4452766,36.048519 20.4550856,35.2242458 20.9633599,34.7237416 L21.5564344,34.1396094 C24.3785747,31.3600836 28.0723437,29.5316423 31.9922468,28.9661526 L40.972954,37.9343624 L37.6063622,41.2962298 Z M44.135983,38.1134148 L33.1005568,27.0934748 L35.3797222,24.8175077 L46.4151485,35.8374477 L44.135983,38.1134148 Z" id="XMLID_1405_" fill="#4E5A56"></path>
                <path d="M53,9 C53.263,9 53.52,8.893 53.707,8.707 C53.893,8.521 54,8.263 54,8 C54,7.737 53.8931,7.479 53.707,7.293 C53.521,7.1071 53.263,7 53,7 C52.737,7 52.479,7.107 52.292,7.293 C52.1061,7.479 52,7.737 52,8 C52,8.263 52.1061,8.521 52.292,8.707 C52.479,8.8929 52.737,9 53,9 Z" id="XMLID_1416_" fill="#D6BEA7"></path>
                <path d="M27.5,14.0919822 C26.7820428,14.0919822 26.1979402,13.6381964 26.1979402,13.0803322 C26.1979402,12.5118645 25.7058214,12.0508725 25.0989701,12.0508725 C24.4921188,12.0508725 24,12.5118645 24,13.0803322 C24,14.4370571 25.0086348,15.5903608 26.4023487,15.9953503 C26.4165254,16.552288 26.9020504,17 27.5,17 C28.0979496,17 28.5834746,16.552288 28.5976513,15.9953503 C29.9913652,15.5903608 31,14.4370571 31,13.0803322 C31,11.3871798 29.4299014,10.0096598 27.5,10.0096598 C26.7820428,10.0096598 26.1979402,9.55577098 26.1979402,8.99790677 C26.1979402,8.44004255 26.7819329,7.98615377 27.5,7.98615377 C28.2180671,7.98615377 28.8020598,8.44004255 28.8020598,8.99790677 C28.8020598,9.56637441 29.2941786,10.0273665 29.9010299,10.0273665 C30.5078812,10.0273665 31,9.56637441 31,8.99790677 C31,7.64149066 29.9920246,6.48849579 28.5989701,6.0831975 L28.5989701,6.02945971 C28.5989701,5.46099206 28.1068513,5 27.5,5 C26.8931487,5 26.4010299,5.46099206 26.4010299,6.02945971 L26.4010299,6.0831975 C25.0080853,6.48849579 24,7.6415936 24,8.99790677 C24,10.6910591 25.5700986,12.0685792 27.5,12.0685792 C28.2179572,12.0685792 28.8020598,12.522468 28.8020598,13.0803322 C28.8020598,13.6381964 28.2179572,14.0919822 27.5,14.0919822 Z" id="XMLID_1418_" fill="#D6BEA7"></path>
                <path d="M27.5,22 C33.2897206,22 38,17.0654216 38,11 C38,4.93457843 33.2897206,0 27.5,0 C21.7102794,0 17,4.93457843 17,11 C17,17.0654216 21.7101765,22 27.5,22 Z M27.5,2.15686275 C32.1544853,2.15686275 35.9411765,6.12387255 35.9411765,11 C35.9411765,15.8761275 32.1544853,19.8431373 27.5,19.8431373 C22.8455147,19.8431373 19.0588235,15.8761275 19.0588235,11 C19.0588235,6.12387255 22.8455147,2.15686275 27.5,2.15686275 Z" id="XMLID_1426_" fill="#D6BEA7"></path>
            </g>
        </g>
    </g>
</svg>