<?xml version="1.0" encoding="UTF-8"?>
<svg width="104px" height="104px" viewBox="0 0 104 104" version="1.1" xmlns="http://www.w3.org/2000/svg" xmlns:xlink="http://www.w3.org/1999/xlink">
    <!-- Generator: Sketch 58 (84663) - https://sketch.com -->
    <title>8</title>
    <desc>Created with Sketch.</desc>
    <g id="Page-1" stroke="none" stroke-width="1" fill="none" fill-rule="evenodd">
        <g id="8" transform="translate(2.000000, 2.000000)">
            <circle id="Oval" stroke="#D6BEA7" stroke-width="3" fill="#FFFFFF" cx="50" cy="50" r="50"></circle>
            <g id="idea" transform="translate(20.000000, 20.000000)" fill-rule="nonzero">
                <path d="M14,4 C14.5523,4 15,3.46058616 15,2.79514443 L15,1.20485557 C15,0.539413838 14.5523,0 14,0 C13.4477,0 13,0.539413838 13,1.20485557 L13,2.79514443 C13,3.46058616 13.4478,4 14,4 Z" id="XMLID_562_" fill="#D6BEA7"></path>
                <path d="M25.1147244,8 C25.399961,8 25.685309,7.89121358 25.9028869,7.67352929 L26.6735496,6.90288453 C27.1088168,6.4676274 27.1088168,5.76185323 26.6735496,5.32648465 C26.2382823,4.89111606 25.5324918,4.89122752 25.0971131,5.32648465 L24.3264504,6.0971294 C23.8911832,6.53238653 23.8911832,7.2381607 24.3264504,7.67352929 C24.5441398,7.89121358 24.8294878,8 25.1147244,8 Z" id="XMLID_610_" fill="#D6BEA7"></path>
                <path d="M1.97513793,9 C2.23740669,9 2.49977794,8.89986933 2.69983602,8.69981296 C3.10005466,8.29959774 3.10005466,7.65064439 2.69983602,7.25032668 L1.74966264,6.30016142 C1.349444,5.89994619 0.700485114,5.89994619 0.300163982,6.30016142 C-0.100054661,6.70037664 -0.100054661,7.34932999 0.300163982,7.7496477 L1.25033736,8.69981296 C1.45049792,8.89986933 1.71286917,9 1.97513793,9 Z" id="XMLID_611_" fill="#D6BEA7"></path>
                <path d="M14,22.6128781 C13.1765627,22.6128781 12.5066583,22.0814615 12.5066583,21.428212 C12.5066583,20.7665768 11.9455428,20.2302486 11.2533292,20.2302486 C10.5611155,20.2302486 10,20.7665768 10,21.428212 C10,23.011201 11.1539402,24.3566337 12.7480495,24.8282719 C12.7628388,25.4776879 13.3170609,26 14,26 C14.6829391,26 15.2371612,25.4776879 15.2519505,24.8282719 C16.8460598,24.3566337 18,23.011201 18,21.428212 C18,19.4539683 16.2056086,17.847619 14,17.847619 C13.1765627,17.847619 12.5066583,17.3162025 12.5066583,16.662953 C12.5066583,16.0097035 13.1765627,15.4782869 14,15.4782869 C14.8234373,15.4782869 15.4933417,16.0097035 15.4933417,16.662953 C15.4933417,17.3245882 16.0544572,17.8609164 16.7466708,17.8609164 C17.4388845,17.8609164 18,17.3245882 18,16.662953 C18,15.0804432 16.8466865,13.7353699 15.2533292,13.2633723 L15.2533292,13.1979635 C15.2533292,12.5363282 14.6922137,12 14,12 C13.3077863,12 12.7466708,12.5363282 12.7466708,13.1979635 L12.7466708,13.2633723 C11.1533135,13.7353699 10,15.0804432 10,16.662953 C10,18.6373166 11.7943914,20.243546 14,20.243546 C14.8234373,20.243546 15.4933417,20.7749626 15.4933417,21.428212 C15.4933417,22.0814615 14.8234373,22.6128781 14,22.6128781 Z" id="XMLID_618_" fill="#D6BEA7"></path>
                <path d="M58.8461538,20.3695664 L57.0692308,20.3695664 C56.8264615,19.5591111 56.5030385,18.7777325 56.1017308,18.032469 L57.3579231,16.7764017 C57.8085,16.3258283 57.8085,15.5952185 57.3579231,15.1445297 L53.8555385,11.642172 C53.4049615,11.1915985 52.6743462,11.1915985 52.2236538,11.642172 L50.9675769,12.8983546 C50.2220769,12.4968193 49.4405769,12.1732833 48.6304615,11.9307467 L48.6304615,10.1538373 C48.6304615,9.51657295 48.1138846,9 47.4766154,9 L42.5235,9 C41.8862308,9 41.3696538,9.51657295 41.3696538,10.1538373 L41.3696538,11.9350159 C40.5609231,12.1782448 39.7811538,12.5020115 39.0375,12.9033161 L37.7763462,11.6422874 C37.56,11.4259429 37.2664615,11.3043284 36.9604615,11.3043284 C36.6544615,11.3043284 36.3609231,11.4259429 36.1445769,11.6422874 L32.6421923,15.144645 C32.1916154,15.5952185 32.1916154,16.3258283 32.6421923,16.7765171 L33.9077308,18.0419304 C33.5086154,18.7846555 33.1865769,19.5632649 32.9450769,20.3696818 L31.1538462,20.3696818 C30.5165769,20.3696818 30,20.8862547 30,21.523519 L30,26.4765963 C30,27.1138607 30.5165769,27.6304336 31.1538462,27.6304336 L32.9493462,27.6304336 C33.1916538,28.4356966 33.5136923,29.2123445 33.9126923,29.9532234 L32.6423077,31.2235983 C32.1917308,31.6741717 32.1917308,32.4047815 32.6423077,32.8554703 L36.1446923,36.357828 C36.3610385,36.5741725 36.6545769,36.695787 36.9605769,36.695787 C37.2665769,36.695787 37.5601154,36.5741725 37.7764615,36.357828 L39.0469615,35.0873378 C39.7878462,35.4863347 40.5645,35.8083707 41.3696538,36.0506765 L41.3696538,37.8461627 C41.3696538,38.4833117 41.8862308,39 42.5235,39 L47.4766154,39 C48.1138846,39 48.6304615,38.4833117 48.6304615,37.8461627 L48.6304615,36.0549457 C49.4374615,35.8132168 50.2156154,35.4914116 50.9582308,35.0922993 L52.2236538,36.3579434 C52.44,36.5742879 52.7335385,36.6959023 53.0395385,36.6959023 C53.3455385,36.6959023 53.6390769,36.5742879 53.8554231,36.3579434 L57.3578077,32.8555857 C57.5741538,32.6391259 57.6957692,32.345705 57.6957692,32.0397074 C57.6957692,31.7337097 57.5741538,31.4401735 57.3578077,31.223829 L56.0967692,29.9628003 C56.4980769,29.2191522 56.8218462,28.4392735 57.0650769,27.6306644 L58.8461538,27.6306644 C59.4834231,27.6306644 60,27.1140914 60,26.4768271 L60,21.5237498 C60,20.8861393 59.4834231,20.3695664 58.8461538,20.3695664 Z M57.6923077,25.3226437 L56.175,25.3226437 C55.6339615,25.3226437 55.1644615,25.6994869 55.0474615,26.227829 C54.7878462,27.4001277 54.3280385,28.5080422 53.6810769,29.5207652 C53.3873077,29.9752617 53.4484615,30.5779109 53.8346538,30.9639849 L54.9101538,32.0394766 L53.0395385,33.9100776 L51.9606923,32.8311244 C51.5927308,32.4632811 51.0227308,32.3870124 50.5711154,32.6451258 C50.5550769,32.6542411 50.5392692,32.663818 50.5236923,32.673741 C49.5098077,33.3195437 48.4014231,33.7777325 47.2270385,34.0364228 C46.6991538,34.153768 46.3226538,34.6230337 46.3226538,35.1638372 L46.3226538,36.6923254 L43.6772308,36.6923254 L43.6772308,35.1607218 C43.6772308,34.6196875 43.3003846,34.1501912 42.7720385,34.0331921 C41.6013462,33.7739248 40.4945769,33.314813 39.4826538,32.6690102 C39.4668462,32.6588565 39.4506923,32.6491642 39.4344231,32.6398182 C38.9826923,32.3818201 38.4128077,32.4580888 38.0448462,32.8259321 L36.9605769,33.910193 L35.0899615,32.039592 L36.1674231,30.9621388 C36.5563846,30.5802186 36.6258462,29.9727233 36.3278077,29.5119961 C35.6854615,28.5042346 35.2284231,27.4026661 34.9691538,26.2378674 C34.8574615,25.7099868 34.3891154,25.3228744 33.8394231,25.3228744 L32.3076923,25.3228744 L32.3076923,22.6774717 L33.8361923,22.6774717 C34.3778077,22.6774717 34.8476538,22.2999362 34.9640769,21.7709018 C35.2221923,20.5987185 35.6803846,19.4903424 36.3261923,18.4765809 C36.3475385,18.4430043 36.3671538,18.4083892 36.3850385,18.3727356 C36.6071538,17.9285082 36.5199231,17.3907047 36.1686923,17.0394766 L35.0898462,15.9606388 L36.9604615,14.0900378 L38.0359615,15.1655295 C38.4221538,15.5517188 39.0249231,15.6127568 39.4793077,15.3189899 C40.4921538,14.6720333 41.5999615,14.2123445 42.7728462,13.9526157 C43.3007308,13.8352705 43.6772308,13.3661203 43.6772308,12.8252013 L43.6772308,11.3076746 L46.3226538,11.3076746 L46.3226538,12.8218552 C46.3226538,13.3634664 46.7001923,13.833309 47.2292308,13.9497312 C48.4047692,14.2085369 49.5156923,14.6684564 50.5315385,15.3166822 C50.5473462,15.3268359 50.5635,15.3365282 50.5797692,15.3458743 C51.0315,15.6038723 51.6013846,15.527719 51.9693462,15.1597603 L53.0393077,14.0896916 L54.9099231,15.9602926 L53.8398462,17.0302459 C53.472,17.3982046 53.3956154,17.9680849 53.6537308,18.4198122 C53.6630769,18.4361966 53.6728846,18.452235 53.6829231,18.4680426 C54.3311538,19.4837655 54.7910769,20.5947954 55.0504615,21.7725171 C55.1678077,22.3003977 55.6370769,22.6768948 56.1778846,22.6768948 L57.6923077,22.6768948 L57.6923077,25.3226437 Z" id="XMLID_621_" fill="#4D5954"></path>
                <path d="M44.5,16 C40.3645,16 37,19.3645 37,23.5 C37,27.6355 40.3645,31 44.5,31 C48.6355,31 52,27.6355 52,23.5 C52,19.3645 48.6355,16 44.5,16 Z M44.5,28.6923077 C41.6369615,28.6923077 39.3076923,26.3630385 39.3076923,23.5 C39.3076923,20.6369615 41.6369615,18.3076923 44.5,18.3076923 C47.3630385,18.3076923 49.6923077,20.6369615 49.6923077,23.5 C49.6923077,26.3630385 47.3630385,28.6923077 44.5,28.6923077 Z" id="XMLID_624_" fill="#4D5954"></path>
                <path d="M44.8334595,45.9331458 C44.1891792,45.9331458 43.666919,46.4599705 43.666919,47.109619 L43.666919,48.7970344 C43.666919,49.1863294 43.3530029,49.5029183 42.9669947,49.5029183 L38.1945608,49.5029183 L38.4633317,49.3464474 C38.7312861,49.190447 38.9267983,48.9335053 39.006823,48.6320929 C39.0869643,48.3306805 39.0449688,48.0096209 38.8902856,47.7393851 L36.9206986,44.298907 C36.5985001,43.7361999 35.8851606,43.5433759 35.3272042,43.8683178 L34.2052256,44.5216133 C33.8367154,44.2587892 33.4468576,44.0314946 33.0379852,43.840906 L33.0379852,42.5352561 C33.0379852,41.8856076 32.515725,41.3587829 31.8714446,41.3587829 L27.932154,41.3587829 C27.2878737,41.3587829 26.7656135,41.8856076 26.7656135,42.5352561 L26.7656135,43.840906 C26.356741,44.0314946 25.9668832,44.2587892 25.5983731,44.5216133 L24.4763944,43.8683178 C23.9184381,43.5434936 23.2049819,43.7360822 22.8829001,44.298907 L20.9133131,47.7393851 C20.7586298,48.0096209 20.7166343,48.3306805 20.7967757,48.6320929 C20.876917,48.9336229 21.0723125,49.190447 21.3402669,49.3464474 L21.6090378,49.5029183 L15.6088201,49.5029183 C15.2228118,49.5029183 14.9088958,49.1863294 14.9088958,48.7970344 L14.9088958,40.3416042 L15.9549327,40.3416042 C16.2642992,40.3416042 16.5609504,40.217604 16.7797934,39.9970152 L19.0709957,37.6863043 C19.289722,37.465598 19.4126754,37.1664208 19.4126754,36.8544202 L19.4126754,31.5222909 C19.5817071,30.7382892 20.0465735,30.0475818 20.7003028,29.6172279 C24.3222944,27.2322816 26.4847105,23.2074493 26.4847105,18.8507339 C26.4847105,15.4175499 25.1588206,12.1900135 22.751431,9.76271408 C20.3447412,7.33612056 17.1456205,6 13.7424719,6 C13.741422,6 13.7400222,6 13.7389723,6 C6.71383206,6.00188236 0.999300076,11.7673067 1,18.8521456 C1,23.1962728 3.15355043,27.2145168 6.75979376,29.6011102 C7.42892139,30.0439347 7.90265349,30.7405245 8.07191852,31.5226438 L8.07191852,36.8545378 C8.07191852,37.1665385 8.19487189,37.4658333 8.41359823,37.686422 L10.7046838,39.9971329 C10.9234101,40.2177216 11.220178,40.3417219 11.5295446,40.3417219 L12.5755815,40.3417219 L12.5755815,48.7971521 C12.5755815,50.4838616 13.9362343,51.8559823 15.6085868,51.8559823 L21.6088045,51.8559823 L21.3400336,52.0124532 C20.7820773,52.3373951 20.5909979,53.0568084 20.9130798,53.6195155 L22.8826668,57.0599936 C23.2047486,57.6225831 23.9182048,57.815407 24.4761611,57.4905828 L25.5981398,56.8372872 C25.9666499,57.1001113 26.3565077,57.3274059 26.7653802,57.5179946 L26.7653802,58.8235268 C26.7653802,59.4731753 27.2876404,60 27.9319207,60 L31.8712113,60 C32.5154917,60 33.0377518,59.4731753 33.0377518,58.8235268 L33.0377518,57.5179946 C33.4466243,57.3274059 33.8364821,57.1001113 34.2049923,56.8372872 L35.3269709,57.4905828 C35.8851606,57.8156423 36.5983834,57.6227007 36.9204653,57.0599936 L38.8900523,53.6195155 C39.2121341,53.0568084 39.0210548,52.3373951 38.4630984,52.0124532 L38.1943275,51.8559823 L42.9669947,51.8559823 C44.6393472,51.8559823 46,50.4838616 46,48.7971521 L46,47.109619 C46,46.4599705 45.4777398,45.9331458 44.8334595,45.9331458 Z M3.33308101,18.8519104 C3.33249774,13.0643683 8.00075955,8.35447572 13.7394389,8.3529463 C13.7404888,8.3529463 13.7413054,8.3529463 13.7423553,8.3529463 C16.5222213,8.3529463 19.1358553,9.44459574 21.101826,11.4267177 C23.06838,13.4095456 24.1515129,16.0461395 24.1515129,18.8507339 C24.1515129,22.4096828 22.384554,25.6980429 19.4246907,27.6469883 C18.4891253,28.2629897 17.7705363,29.172874 17.3687797,30.2242881 L10.1142976,30.2242881 C9.71032466,29.1738152 8.98520308,28.2593426 8.039722,27.6336942 C5.09292402,25.6835723 3.33343098,22.400624 3.33308101,18.8519104 Z M10.4051162,36.367125 L10.4051162,32.577352 L17.0794777,32.577352 L17.0794777,36.3672426 L15.4716349,37.9886579 L12.0128423,37.9886579 L10.4051162,36.367125 Z M35.483404,54.864577 L34.6847904,54.3996349 C34.2482709,54.1455167 33.6994136,54.2026933 33.3237876,54.5416352 C32.7919618,55.0212833 32.1808112,55.3777546 31.5070174,55.6011669 C31.0282692,55.7598731 30.7047875,56.2106976 30.7047875,56.7188164 L30.7047875,57.6470537 L29.0985779,57.6470537 L29.0985779,56.7188164 C29.0985779,56.2106976 28.7750962,55.7598731 28.296348,55.6011669 C27.6225542,55.3778723 27.0112869,55.0212833 26.4795778,54.5416352 C26.1038351,54.2026933 25.5550944,54.145399 25.118575,54.3996349 L24.3199613,54.864577 L23.5169148,53.4617505 L24.3141286,52.9975142 C24.7500648,52.7437489 24.9753238,52.2364537 24.8730182,51.7395114 C24.8016259,51.3926871 24.7654631,51.0360981 24.7654631,50.6793915 C24.7654631,50.3229201 24.8017426,49.9660958 24.8731348,49.6190362 C24.9753238,49.1219763 24.7500648,48.6149164 24.3141286,48.3611511 L23.5169148,47.8970325 L24.3199613,46.4942059 L25.118575,46.9591481 C25.5550944,47.2132663 26.1039517,47.1562073 26.4795778,46.8171477 C27.0114036,46.3374996 27.6225542,45.9810283 28.296348,45.757616 C28.7750962,45.5989098 29.0985779,45.1480853 29.0985779,44.6399665 L29.0985779,43.7116116 L30.7047875,43.7116116 L30.7047875,44.6399665 C30.7047875,45.1480853 31.0282692,45.5989098 31.5070174,45.757616 C32.1808112,45.9809106 32.7920784,46.3374996 33.3237876,46.8171477 C33.6994136,47.155972 34.2481543,47.2132663 34.6847904,46.9591481 L35.483404,46.4942059 L36.2864505,47.8970325 L35.4892367,48.3611511 C35.0534172,48.6149164 34.8280416,49.1220939 34.9302305,49.6190362 C35.0016228,49.9660958 35.0379022,50.3228024 35.0379022,50.6793915 C35.0379022,51.0359805 35.0016228,51.3926871 34.9303472,51.7395114 C34.8280416,52.2365713 35.0533005,52.7437489 35.4892367,52.9975142 L36.2864505,53.4617505 L35.483404,54.864577 Z" id="XMLID_627_" fill="#4D5954"></path>
                <path d="M45,41 C44.737,41 44.479,41.1069 44.293,41.293 C44.107,41.479 44,41.737 44,42 C44,42.263 44.107,42.521 44.293,42.7069 C44.479,42.8929 44.737,43 45,43 C45.263,43 45.521,42.893 45.707,42.7069 C45.893,42.521 46,42.263 46,42 C46,41.737 45.893,41.479 45.707,41.293 C45.521,41.107 45.263,41 45,41 Z" id="XMLID_630_" fill="#D6BEA7"></path>
                <path d="M30,50 C29.737,50 29.479,50.107 29.293,50.293 C29.107,50.479 29,50.737 29,51 C29,51.264 29.107,51.521 29.293,51.707 C29.479,51.8929 29.737,52 30,52 C30.263,52 30.521,51.893 30.707,51.707 C30.893,51.521 31,51.2639 31,51 C31,50.737 30.893,50.479 30.707,50.293 C30.521,50.107 30.263,50 30,50 Z" id="XMLID_631_" fill="#D6BEA7"></path>
            </g>
        </g>
    </g>
</svg>