<?xml version="1.0" encoding="UTF-8"?>
<svg width="104px" height="104px" viewBox="0 0 104 104" version="1.1" xmlns="http://www.w3.org/2000/svg" xmlns:xlink="http://www.w3.org/1999/xlink">
    <!-- Generator: Sketch 58 (84663) - https://sketch.com -->
    <title>10</title>
    <desc>Created with Sketch.</desc>
    <g id="Page-1" stroke="none" stroke-width="1" fill="none" fill-rule="evenodd">
        <g id="10" transform="translate(2.000000, 2.000000)">
            <circle id="Oval" stroke="#D6BEA7" stroke-width="3" fill="#FFFFFF" cx="50" cy="50" r="50"></circle>
            <g id="laptop" transform="translate(21.000000, 18.000000)" fill-rule="nonzero">
                <path d="M56.8671875,49.3907035 L54.1484375,49.3907035 L54.1484375,19.7112865 C54.1484375,17.587509 52.4206719,15.8597591 50.296875,15.8597591 L42.2138047,15.8597591 C41.5044375,14.1314428 40.452168,12.544387 39.0910938,11.183665 C36.3922813,8.48555677 32.8051172,7 28.9890117,7 C28.9878789,7 28.986293,7 28.9851602,7 C25.1641836,7.00101952 21.5753203,8.48657629 18.8799063,11.1829853 C17.520418,12.5430276 16.4695078,14.13031 15.7612734,15.8597591 L7.703125,15.8597591 C5.57932812,15.8597591 3.8515625,17.587509 3.8515625,19.7112865 L3.8515625,26.7329608 C3.8515625,27.3586074 4.35872266,27.8657629 4.984375,27.8657629 C5.61002734,27.8657629 6.1171875,27.3586074 6.1171875,26.7329608 L6.1171875,19.7112865 C6.1171875,18.8367632 6.82859375,18.1253634 7.703125,18.1253634 L15.0488477,18.1253634 C14.8186602,19.1517955 14.7005078,20.2115319 14.7006211,21.289733 C14.7010742,26.1197749 17.1155508,30.5875467 21.1593516,33.2410225 C21.9678398,33.7715138 22.5385508,34.6085413 22.7378125,35.5476343 L22.7378125,41.95499 C22.7378125,42.2554091 22.8572109,42.5434807 23.0696133,42.7559944 L25.294457,44.9809312 C25.5068594,45.1933316 25.7950469,45.3127289 26.0954687,45.3127289 L31.8824414,45.3127289 C32.1828633,45.3127289 32.4710508,45.1933316 32.6834531,44.9809312 L34.9084102,42.7559944 C35.1208125,42.543594 35.2402109,42.2554091 35.2402109,41.95499 L35.2402109,35.5474078 C35.4391328,34.6060492 35.999875,33.7755919 36.790918,33.2591474 C40.8525039,30.6073708 43.2772891,26.1322358 43.2772891,21.2882604 C43.2772891,20.2108522 43.1586836,19.1515689 42.9279297,18.1254767 L50.296875,18.1254767 C51.1714063,18.1254767 51.8828125,18.8368765 51.8828125,19.7113998 L51.8828125,49.3908168 L6.1171875,49.3908168 L6.1171875,35.7954914 C6.1171875,35.1698448 5.61002734,34.6626893 4.984375,34.6626893 C4.35872266,34.6626893 3.8515625,35.1698448 3.8515625,35.7954914 L3.8515625,49.3907035 L1.1328125,49.3907035 C0.507160156,49.3907035 0,49.897859 0,50.5235056 C0,54.6461126 3.35391797,58 7.4765625,58 L50.5234375,58 C54.646082,58 58,54.6461126 58,50.5235056 C58,49.897859 57.4928398,49.3907035 56.8671875,49.3907035 Z M32.9744727,38.6723559 L25.0033242,38.6723559 L25.0033242,36.5633048 L32.9744727,36.5633048 L32.9744727,38.6723559 Z M31.4131172,43.0470113 L26.5645664,43.0470113 L25.0033242,41.4856701 L25.0033242,40.9379602 L32.9744727,40.9379602 L32.9744727,41.4856701 L31.4131172,43.0470113 Z M35.5523008,31.3619303 C34.4862109,32.057924 33.6761367,33.0981762 33.2443086,34.2977004 L24.7321289,34.2977004 C24.2979219,33.0995356 23.4801445,32.0540724 22.4022734,31.3467507 C18.9987383,29.1134313 16.9665859,25.3536608 16.9661328,21.2893932 C16.9654531,14.6611411 22.3573008,9.26730355 28.9855,9.26549107 C28.9867461,9.26549107 28.9876523,9.26549107 28.9887852,9.26549107 C32.1995156,9.26549107 35.2183477,10.5156516 37.4890703,12.7857871 C39.7605859,15.0567156 41.0115508,18.0761998 41.0115508,21.2881471 C41.0115508,25.3641959 38.9707891,29.1300834 35.5523008,31.3619303 Z M50.5234375,55.7343957 L7.4765625,55.7343957 C4.99219141,55.7343957 2.90826953,53.9867085 2.38966797,51.6563078 L4.984375,51.6563078 L53.015625,51.6563078 L55.610332,51.6563078 C55.0917305,53.9867085 53.0078086,55.7343957 50.5234375,55.7343957 Z" id="XMLID_867_" fill="#4D5954"></path>
                <path d="M5,32 C5.263,32 5.521,31.893 5.707,31.707 C5.893,31.521 6,31.263 6,31 C6,30.736 5.893,30.479 5.707,30.292 C5.521,30.106 5.263,30 5,30 C4.737,30 4.479,30.106 4.293,30.292 C4.107,30.479 4,30.736 4,31 C4,31.263 4.107,31.521 4.293,31.707 C4.479,31.893 4.737,32 5,32 Z" id="XMLID_875_" fill="#D6BEA7"></path>
                <path d="M29,5 C29.5523,5 30,4.4854023 30,3.85057471 L30,1.14942529 C30,0.514597701 29.5523,0 29,0 C28.4477,0 28,0.514597701 28,1.14942529 L28,3.85057471 C28,4.4854023 28.4477,5 29,5 Z" id="XMLID_1119_" fill="#D6BEA7"></path>
                <path d="M42.2076195,10 C42.5166262,10 42.8257536,9.88214606 43.0614632,9.64631744 L44.646345,8.06144767 C45.117885,7.58991117 45.117885,6.82530962 44.646345,6.35365237 C44.1748049,5.88211588 43.4101976,5.88211588 42.9385368,6.35365237 L41.353655,7.93852215 C40.882115,8.41005864 40.882115,9.1746602 41.353655,9.64631744 C41.5894854,9.88214606 41.8986129,10 42.2076195,10 Z" id="XMLID_1135_" fill="#D6BEA7"></path>
                <path d="M14.9644055,9.65073521 C15.1972902,9.88361815 15.5024371,10 15.807584,10 C16.1127309,10 16.417997,9.88361815 16.6507624,9.65073521 C17.1164125,9.18508858 17.1164125,8.43003749 16.6507624,7.96427161 L15.0357138,6.34923498 C14.5700636,5.88358834 13.8150069,5.88358834 13.3492376,6.34923498 C12.8835875,6.81488161 12.8835875,7.5699327 13.3492376,8.03569858 L14.9644055,9.65073521 Z" id="XMLID_1175_" fill="#D6BEA7"></path>
                <path d="M29,17.4388357 C29.96816,17.4388357 30.7557719,18.1087416 30.7557719,18.9320646 C30.7557719,19.5532685 31.2581423,20.0568228 31.8778859,20.0568228 C32.4976295,20.0568228 33,19.5532685 33,18.9320646 C33,17.23278 31.7830673,15.795339 30.1221141,15.3402618 L30.1221141,15.1247582 C30.1221141,14.5035542 29.6197436,14 29,14 C28.3802564,14 27.8778859,14.5035542 27.8778859,15.1247582 L27.8778859,15.3402618 C26.2169327,15.795339 25,17.23278 25,18.9320646 C25,20.9958834 26.7943726,22.6748099 29,22.6748099 C29.96816,22.6748099 30.7557719,23.3447159 30.7557719,24.1680389 C30.7557719,24.9913619 29.96816,25.6613803 29,25.6613803 C28.03184,25.6613803 27.2442281,24.9914743 27.2442281,24.1681513 C27.2442281,23.5469474 26.7418577,23.0433932 26.1221141,23.0433932 C25.5023705,23.0433932 25,23.5469474 25,24.1681513 C25,25.867436 26.2169327,27.304877 27.8778859,27.7599541 L27.8778859,27.8752418 C27.8778859,28.4964458 28.3802564,29 29,29 C29.6197436,29 30.1221141,28.4964458 30.1221141,27.8752418 L30.1221141,27.7599541 C31.7830673,27.304877 33,25.867436 33,24.1681513 C33,22.1043326 31.2056274,20.425406 29,20.425406 C28.03184,20.425406 27.2442281,19.7555001 27.2442281,18.9321771 C27.2442281,18.1087416 28.03184,17.4388357 29,17.4388357 Z" id="XMLID_1177_" fill="#D6BEA7"></path>
                <path d="M48.790932,41 C49.4587003,41 50,40.5523 50,40 C50,39.4477 49.4587003,39 48.790932,39 L45.209068,39 C44.5412997,39 44,39.4477 44,40 C44,40.5523 44.5412997,41 45.209068,41 L48.790932,41 Z" id="XMLID_1178_" fill="#D6BEA7"></path>
                <path d="M39,44 C39,44.5523 39.5295035,45 40.1827194,45 L48.8172806,45 C49.4704965,45 50,44.5523 50,44 C50,43.4477 49.4704965,43 48.8172806,43 L40.1827194,43 C39.5296217,43 39,43.4477 39,44 Z" id="XMLID_1231_" fill="#D6BEA7"></path>
                <path d="M9.20906801,41 L12.790932,41 C13.4587003,41 14,40.5523 14,40 C14,39.4477 13.4587003,39 12.790932,39 L9.20906801,39 C8.54129975,39 8,39.4477 8,40 C8,40.5523 8.54129975,41 9.20906801,41 Z" id="XMLID_1232_" fill="#D6BEA7"></path>
                <path d="M9.18271939,45 L17.8172806,45 C18.4704965,45 19,44.5523 19,44 C19,43.4477 18.4704965,43 17.8172806,43 L9.18271939,43 C8.52950347,43 8,43.4477 8,44 C8,44.5523 8.52950347,45 9.18271939,45 Z" id="XMLID_1342_" fill="#D6BEA7"></path>
            </g>
        </g>
    </g>
</svg>