<?xml version="1.0" encoding="UTF-8"?>
<svg width="104px" height="104px" viewBox="0 0 104 104" version="1.1" xmlns="http://www.w3.org/2000/svg" xmlns:xlink="http://www.w3.org/1999/xlink">
    <!-- Generator: Sketch 58 (84663) - https://sketch.com -->
    <title>9</title>
    <desc>Created with Sketch.</desc>
    <g id="Page-1" stroke="none" stroke-width="1" fill="none" fill-rule="evenodd">
        <g id="9" transform="translate(2.000000, 2.000000)">
            <circle id="Oval" stroke="#D6BEA7" stroke-width="3" fill="#FFFFFF" cx="50" cy="50" r="50"></circle>
            <g id="digital-marketing" transform="translate(21.000000, 21.000000)" fill-rule="nonzero">
                <path d="M28.707,49.2931 C28.521,49.1071 28.263,49 28,49 C27.737,49 27.479,49.107 27.293,49.2931 C27.107,49.479 27,49.737 27,50 C27,50.2641 27.107,50.521 27.293,50.707 C27.479,50.894 27.737,51 28,51 C28.263,51 28.521,50.894 28.707,50.707 C28.893,50.521 29,50.2631 29,50 C29,49.737 28.8929,49.479 28.707,49.2931 Z" id="Path" fill="#D6BEA7"></path>
                <path d="M34.0104175,38.5037134 L34.0104175,30.1369864 C34.0104175,29.7592545 33.8227233,29.4060831 33.5095583,29.1947034 C33.1963934,28.9833236 32.7985954,28.9412523 32.4478917,29.082248 L12.8465877,36.9731147 L6.53323714,36.9731147 C2.93087345,36.9731147 0,39.9027541 0,43.5038284 C0,47.1049026 2.93087345,50.034542 6.53346465,50.034542 L7.28526526,50.034542 L7.28526526,56.8628246 C7.28526526,57.4907101 7.7945422,58 8.42280589,58 L13.0667018,58 C13.6949655,58 14.2042424,57.4907101 14.2042424,56.8628246 L14.2042424,50.5830605 L32.4484604,57.9177904 C32.5853066,57.9728242 32.729433,58 32.8727631,58 C33.0966311,58 33.3189065,57.9339367 33.5097858,57.8051076 C33.822837,57.5937279 34.0104175,57.2405565 34.0104175,56.8629383 L34.0104175,48.496325 C36.2916415,47.9774837 38,45.9350936 38,43.5000761 C38,41.0650585 36.2916415,39.0225547 34.0104175,38.5037134 Z M11.9290474,55.725763 L9.56034653,55.725763 L9.56034653,50.0344283 L11.9291612,50.0344283 L11.9291612,55.725763 L11.9290474,55.725763 Z M11.9292749,47.760305 L6.53346465,47.760305 C4.18535327,47.760305 2.27508127,45.8508373 2.27508127,43.5038284 C2.27508127,41.1567057 4.18535327,39.2472381 6.53346465,39.2472381 L11.9297299,39.2472381 L11.9292749,47.760305 Z M31.73545,55.1798597 L31.73545,55.1798597 L14.2048112,48.1320104 L14.2048112,38.8779204 L26.6525771,33.8668897 L26.6525771,45.1510896 C26.6525771,45.778975 27.1618541,46.2881512 27.7901178,46.2881512 C28.4183815,46.2881512 28.9276584,45.778975 28.9276584,45.1510896 L28.9276584,32.9509866 L31.73545,31.8206336 L31.73545,55.1798597 Z M34.0104175,46.1134986 L34.0104175,40.8864261 C35.0183922,41.326469 35.7249187,42.3320863 35.7249187,43.4999624 C35.7249187,44.6678384 35.018506,45.6734557 34.0104175,46.1134986 Z" id="Shape" fill="#4D5954"></path>
                <path d="M48.8253413,43 L42.1746587,43 C41.5258947,43 41,43.4478 41,44 C41,44.5522 41.5258947,45 42.1746587,45 L48.8253413,45 C49.4741053,45 50,44.5522 50,44 C50,43.4478 49.4741053,43 48.8253413,43 Z" id="Path" fill="#D6BEA7"></path>
                <path d="M43.6295582,34.3703516 C43.1356358,33.8765495 42.3347352,33.8765495 41.8406863,34.3703516 L39.3704418,36.8406274 C38.8765194,37.334556 38.8765194,38.1354667 39.3704418,38.6295219 C39.6175927,38.876423 39.9412669,39 40.264941,39 C40.5886151,39 40.9124157,38.876423 41.1593137,38.6295219 L43.6295582,36.1592461 C44.1234806,35.6653175 44.1234806,34.8644068 43.6295582,34.3703516 Z" id="Path" fill="#D6BEA7"></path>
                <path d="M43.635578,50.8757715 L41.1242239,48.3643241 C40.6383279,47.8785586 39.8504423,47.8785586 39.364422,48.3643241 C38.878526,48.850214 38.878526,49.6380898 39.364422,50.1241041 L41.8759006,52.6355515 C42.1189107,52.8784342 42.437325,53 42.7557393,53 C43.0741536,53 43.3926923,52.8784342 43.635578,52.6355515 C44.121474,52.1496616 44.121474,51.3617858 43.635578,50.8757715 Z" id="Path" fill="#D6BEA7"></path>
                <path d="M53.4585153,0 L32.3406114,0 C29.8364367,0 27.7991266,2.03721785 27.7991266,4.5412792 L27.7991266,4.99540712 L8.72489083,4.99540712 C7.22234061,4.99540712 6,6.21780594 6,7.72017463 L6,25.6582275 C6,27.1605961 7.22234061,28.382995 8.72489083,28.382995 L9.89806987,28.382995 L9.89806987,31.8646802 C9.89806987,32.3239171 10.1747598,32.7378547 10.5989345,32.9136022 C10.7393799,32.9717305 10.8868646,33 11.033214,33 C11.3286376,33 11.6190655,32.8846515 11.836262,32.6674648 L16.1209258,28.382995 L38.6737118,28.382995 C40.176262,28.382995 41.3986026,27.1605961 41.3986026,25.6582275 L41.3986026,22.2522681 L53.4585153,22.2522681 C55.96269,22.2522681 58,20.2150502 58,17.7109889 L58,4.5412792 C58,2.03721785 55.96269,0 53.4585153,0 Z M39.1278603,25.6582275 C39.1278603,25.908679 38.9241747,26.1123554 38.6737118,26.1123554 L15.650655,26.1123554 C15.3495546,26.1123554 15.0607162,26.2320181 14.8478341,26.4448905 L12.1689258,29.1237911 L12.1689258,27.2476752 C12.1689258,26.6207516 11.6606201,26.1123554 11.0335546,26.1123554 L8.72489083,26.1123554 C8.47442795,26.1123554 8.27074236,25.908679 8.27074236,25.6582275 L8.27074236,7.72017463 C8.27074236,7.46972309 8.47442795,7.26604671 8.72489083,7.26604671 L27.7991266,7.26604671 L27.7991266,17.7109889 C27.7991266,20.2150502 29.8364367,22.2522681 32.3406114,22.2522681 L39.1278603,22.2522681 L39.1278603,25.6582275 Z M55.7292576,17.7109889 C55.7292576,18.9630195 54.7106026,19.9816285 53.4585153,19.9816285 L32.3406114,19.9816285 C31.088524,19.9816285 30.069869,18.9630195 30.069869,17.7109889 L30.069869,4.5412792 C30.069869,3.28924852 31.088524,2.2706396 32.3406114,2.2706396 L53.4585153,2.2706396 C54.7106026,2.2706396 55.7292576,3.28924852 55.7292576,4.5412792 L55.7292576,17.7109889 Z" id="Shape" fill="#4D5954"></path>
                <path d="M47.434645,9.53811198 L39.6960651,5.14887569 C39.3462234,4.95037477 38.9151967,4.95037477 38.565355,5.14887569 C38.2155133,5.34726553 38,5.71405345 38,6.11083313 L38,14.8891946 C38,15.2859743 38.2155133,15.6527622 38.565355,15.8511521 C38.7402759,15.9504581 38.9354365,16 39.1307101,16 C39.3259837,16 39.5211443,15.9504581 39.6960651,15.8511521 L47.434645,11.4619158 C47.7844867,11.2635259 48,10.896738 48,10.4999583 C48,10.1031787 47.7845997,9.73650182 47.434645,9.53811198 Z M40.2614202,12.9652798 L40.2614202,8.03485909 L44.6078697,10.5000694 L40.2614202,12.9652798 Z" id="Shape" fill="#D6BEA7"></path>
                <path d="M23.9166667,12 L13.0833333,12 C12.4850083,12 12,12.4478 12,13 C12,13.5522 12.4850083,14 13.0833333,14 L23.9166667,14 C24.5149917,14 25,13.5522 25,13 C25,12.4478 24.5149917,12 23.9166667,12 Z" id="Path" fill="#D6BEA7"></path>
                <path d="M24.707,18.293 C24.521,18.1069 24.263,18 24,18 C23.737,18 23.479,18.1069 23.293,18.293 C23.107,18.479 23,18.737 23,19 C23,19.263 23.107,19.521 23.293,19.7069 C23.479,19.8929 23.737,20 24,20 C24.264,20 24.521,19.893 24.707,19.7069 C24.893,19.521 25,19.263 25,19 C25,18.737 24.893,18.479 24.707,18.293 Z" id="Path" fill="#D6BEA7"></path>
                <path d="M19.9089454,18 L13.0910546,18 C12.4884651,18 12,18.4478 12,19 C12,19.5522 12.4884651,20 13.0910546,20 L19.9089454,20 C20.5115349,20 21,19.5522 21,19 C21,18.4478 20.5115349,18 19.9089454,18 Z" id="Path" fill="#D6BEA7"></path>
            </g>
        </g>
    </g>
</svg>