<?xml version="1.0" encoding="UTF-8"?>
<svg width="100px" height="115px" viewBox="0 0 100 115" version="1.1" xmlns="http://www.w3.org/2000/svg" xmlns:xlink="http://www.w3.org/1999/xlink">
    <!-- Generator: Sketch 58 (84663) - https://sketch.com -->
    <title>1</title>
    <desc>Created with Sketch.</desc>
    <g id="Page-1" stroke="none" stroke-width="1" fill="none" fill-rule="evenodd">
        <g id="1">
            <circle id="Oval" fill="#FAF7F0" cx="50" cy="65" r="50"></circle>
            <g id="Group" transform="translate(35.000000, 0.000000)">
                <circle id="Oval" fill="#4D5954" cx="15" cy="15" r="15"></circle>
                <text id="01" font-family="Roboto-Black, Roboto" font-size="13" font-weight="700" fill="#FFFFFF">
                    <tspan x="8" y="20">01</tspan>
                </text>
            </g>
            <g id="results" transform="translate(22.000000, 37.000000)" fill-rule="nonzero">
                <path d="M6,25.3737732 C6,30.681738 10.318262,35 15.6262268,35 C20.5775905,35 24.6670536,31.2423374 25.1943042,26.4291185 L25.9446547,26.4291185 C26.5274164,26.4291185 27,25.9565348 27,25.3737732 C27,19.102278 21.897722,14 15.6262268,14 C15.0434652,14 14.5708815,14.4725836 14.5708815,15.0553453 L14.5708815,15.8056958 C9.75766256,16.3329464 6,20.422515 6,25.3737732 Z M14.5708815,22.8259585 L11.1132536,19.3683306 C12.104645,18.6214627 13.2861041,18.1152136 14.5708815,17.9337997 L14.5708815,22.8259585 Z M15.6262268,32.8893094 C11.4820968,32.8893094 8.11069065,29.5179032 8.11069065,25.3737732 C8.11069065,23.6815269 8.67329524,22.118455 9.62078427,20.8608 L14.8799922,26.1200078 C14.8800977,26.1201134 14.8802032,26.1201134 14.8804143,26.1203244 C15.0714318,26.3111309 15.3350571,26.4291185 15.6262268,26.4291185 L23.0662003,26.4291185 C22.5512973,30.0751255 19.4119616,32.8893094 15.6262268,32.8893094 Z M16.6815722,16.1704232 C20.9482278,16.6563042 24.3438014,20.0517722 24.8295768,24.3184278 L16.6815722,24.3184278 L16.6815722,16.1704232 Z" id="XMLID_214_" fill="#D7C1A6"></path>
                <path d="M52.0722344,5.90625 L32.59375,5.90625 L32.59375,1.09375 C32.59375,0.48978125 32.1039688,0 31.5,0 L24.5,0 C23.8960313,0 23.40625,0.48978125 23.40625,1.09375 L23.40625,5.90625 L16.9891094,5.90625 C16.3851406,5.90625 15.8953594,6.39603125 15.8953594,7 C15.8953594,7.60396875 16.3851406,8.09375 16.9891094,8.09375 L52.0722344,8.09375 C53.0317813,8.09375 53.8125,8.87446875 53.8125,9.83401563 L53.8125,38.2909844 C53.8125,39.2505313 53.0317813,40.03125 52.0722344,40.03125 L3.92776563,40.03125 C2.96821875,40.03125 2.1875,39.2505313 2.1875,38.2909844 L2.1875,9.83401563 C2.1875,8.87446875 2.96821875,8.09375 3.92776563,8.09375 L8.2215,8.09375 C8.82546875,8.09375 9.31525,7.60396875 9.31525,7 C9.31525,6.39603125 8.82546875,5.90625 8.2215,5.90625 L3.92776563,5.90625 C1.76192188,5.90625 0,7.66817188 0,9.83401563 L0,38.2909844 C0,40.4568281 1.76192188,42.21875 3.92776563,42.21875 L15.717625,42.21875 L9.5248125,54.411 C9.35265625,54.7500625 9.36884375,55.1542031 9.56779688,55.4783906 C9.76675,55.8024688 10.1197031,56 10.5,56 L17.5,56 C17.9117969,56 18.2887031,55.7687813 18.4751875,55.4015 L23.40625,45.6934844 L23.40625,54.90625 C23.40625,55.5102188 23.8960313,56 24.5,56 L31.5,56 C32.1039688,56 32.59375,55.5102188 32.59375,54.90625 L32.59375,45.6934844 L37.5248125,55.4015 C37.7112969,55.7686719 38.0882031,56 38.5,56 L45.5,56 C45.8802969,56 46.23325,55.8024688 46.4322031,55.4782813 C46.6310469,55.1540938 46.6473438,54.7499531 46.4751875,54.4108906 L40.2822656,42.21875 L52.072125,42.21875 C54.2380781,42.21875 56,40.4568281 56,38.2909844 L56,9.83401563 C56,7.66817188 54.2380781,5.90625 52.0722344,5.90625 Z M25.59375,5.90625 L25.59375,2.1875 L30.40625,2.1875 L30.40625,5.90625 L25.59375,5.90625 Z M16.8287656,53.8125 L12.282375,53.8125 L18.1712344,42.21875 L22.717625,42.21875 L16.8287656,53.8125 Z M30.40625,53.8125 L25.59375,53.8125 L25.59375,42.21875 L30.40625,42.21875 L30.40625,53.8125 Z M43.717625,53.8125 L39.1712344,53.8125 L33.282375,42.21875 L37.8287656,42.21875 L43.717625,53.8125 Z" id="XMLID_961_" fill="#4E5A56"></path>
                <path d="M11.9995002,8 C12.2633683,8 12.5202399,7.893 12.7071464,7.7069 C12.8929535,7.521 13,7.263 13,7 C13,6.737 12.8930535,6.479 12.7071464,6.293 C12.5212394,6.107 12.2633683,6 11.9995002,6 C11.7366317,6 11.4787606,6.1069 11.2937531,6.293 C11.1069465,6.479 11,6.737 11,7 C11,7.263 11.1069465,7.521 11.2937531,7.7069 C11.4787606,7.893 11.7366317,8 11.9995002,8 Z" id="XMLID_1000_" fill="#D6BEA7"></path>
                <path d="M28.0730509,20 L34.9269491,20 C35.5194878,20 36,19.5522 36,19 C36,18.4478 35.5194878,18 34.9269491,18 L28.0730509,18 C27.4805122,18 27,18.4478 27,19 C27,19.5522 27.4804049,20 28.0730509,20 Z" id="XMLID_1001_" fill="#D6BEA7"></path>
                <path d="M28.1121739,14 L40.8878261,14 C41.5019685,14 42,13.5522 42,13 C42,12.4478 41.5019685,12 40.8878261,12 L28.1121739,12 C27.4980315,12 27,12.4478 27,13 C27,13.5522 27.4979202,14 28.1121739,14 Z" id="XMLID_1025_" fill="#D6BEA7"></path>
                <path d="M45.7069,13.707 C45.8929,13.5211 46,13.2631 46,13 C46,12.737 45.893,12.479 45.7069,12.2931 C45.521,12.1061 45.263,12 45,12 C44.737,12 44.479,12.1061 44.293,12.2931 C44.107,12.479 44,12.7361 44,13 C44,13.2631 44.1069,13.5211 44.293,13.707 C44.479,13.893 44.737,14 45,14 C45.263,14 45.521,13.893 45.7069,13.707 Z" id="XMLID_1026_" fill="#D6BEA7"></path>
                <path d="M28.1068167,35 L50.8931833,35 C51.5043675,35 52,34.4947635 52,33.8717363 L52,19.1282637 C52,18.5052365 51.5043675,18 50.8931833,18 C50.2819992,18 49.7863667,18.5052365 49.7863667,19.1282637 L49.7863667,32.7435855 L47.5727334,32.7435855 L47.5727334,21.6035613 C47.5727334,20.9805341 47.0771008,20.4752977 46.4659167,20.4752977 L41.1531967,20.4752977 C40.5420125,20.4752977 40.04638,20.9805341 40.04638,21.6035613 L40.04638,23.4736584 L35.8404767,23.4736584 C35.2292926,23.4736584 34.7336601,23.9788948 34.7336601,24.601922 L34.7336601,27.2083239 L30.5277567,27.2083239 C29.9165726,27.2083239 29.4209401,27.7135604 29.4209401,28.3365876 L29.4209401,32.7436983 L28.1068167,32.7436983 C27.4956325,32.7436983 27,33.2489348 27,33.871962 C27,34.4949892 27.4955218,35 28.1068167,35 Z M42.2600134,22.7317122 L45.3591,22.7317122 L45.3591,32.7434727 L42.2600134,32.7434727 L42.2600134,24.6018092 L42.2600134,22.7317122 Z M36.9472934,25.7300729 L40.04638,25.7300729 L40.04638,32.7434727 L36.9472934,32.7434727 L36.9472934,28.3363619 L36.9472934,25.7300729 Z M31.6345734,29.4647384 L34.7336601,29.4647384 L34.7336601,32.7435855 L31.6345734,32.7435855 L31.6345734,29.4647384 Z" id="XMLID_1036_" fill="#D6BEA7"></path>
            </g>
        </g>
    </g>
</svg>