<?xml version="1.0" encoding="UTF-8"?>
<svg width="100px" height="115px" viewBox="0 0 100 115" version="1.1" xmlns="http://www.w3.org/2000/svg" xmlns:xlink="http://www.w3.org/1999/xlink">
    <!-- Generator: Sketch 58 (84663) - https://sketch.com -->
    <title>2</title>
    <desc>Created with Sketch.</desc>
    <g id="Page-1" stroke="none" stroke-width="1" fill="none" fill-rule="evenodd">
        <g id="2">
            <circle id="Oval" fill="#FAF7F0" cx="50" cy="65" r="50"></circle>
            <g id="Group" transform="translate(35.000000, 0.000000)">
                <circle id="Oval" fill="#4D5954" cx="15" cy="15" r="15"></circle>
                <text id="02" font-family="Roboto-Black, Roboto" font-size="13" font-weight="700" fill="#FFFFFF">
                    <tspan x="7" y="20">02</tspan>
                </text>
            </g>
            <g id="presentation" transform="translate(23.000000, 38.000000)" fill-rule="nonzero">
                <path d="M13.2928536,31.293 C13.1069465,31.479 13,31.7361 13,32 C13,32.263 13.1069465,32.521 13.2928536,32.707 C13.4797601,32.8929 13.7376312,33 14.0004998,33 C14.2633683,33 14.5202399,32.893 14.7071464,32.707 C14.8930535,32.521 15,32.263 15,32 C15,31.736 14.8930535,31.479 14.7071464,31.293 C14.5202399,31.106 14.2633683,31 14.0004998,31 C13.7366317,31 13.4797601,31.1059 13.2928536,31.293 Z" id="XMLID_913_" fill="#D6BEA7"></path>
                <path d="M1.07142857,33 L10.21875,33 C10.8105,33 11.2901786,32.5188505 11.2901786,31.9255259 C11.2901786,31.3322013 10.8105,30.8510518 10.21875,30.8510518 L2.14285714,30.8510518 L2.14285714,2.14894815 L42.8571429,2.14894815 L42.8571429,11.5433974 C42.8571429,12.1368294 43.3368214,12.6178714 43.9285714,12.6178714 C44.5203214,12.6178714 45,12.1368294 45,11.5433974 L45,1.07447408 C45,0.481042044 44.5203214,0 43.9285714,0 L1.07142857,0 C0.479678571,0 0,0.481042044 0,1.07447408 L0,31.9255259 C0,32.5188505 0.479678571,33 1.07142857,33 Z" id="XMLID_914_" fill="#4E5A56"></path>
                <path d="M43,15 C42.737,15 42.479,15.107 42.293,15.293 C42.107,15.479 42,15.737 42,16 C42,16.263 42.107,16.521 42.293,16.707 C42.479,16.893 42.737,17 43,17 C43.263,17 43.521,16.893 43.707,16.707 C43.893,16.521 44,16.263 44,16 C44,15.737 43.893,15.479 43.707,15.293 C43.521,15.107 43.263,15 43,15 Z" id="XMLID_915_" fill="#D6BEA7"></path>
                <path d="M51.1438792,26.7546398 C51.7832349,25.9491962 52.1669936,24.9273834 52.1669936,23.8161003 L52.1669936,22.7002964 C52.1669936,20.1085992 50.0841027,18 47.5237722,18 L46.9409158,18 C44.3806892,18 42.2976943,20.1085992 42.2976943,22.7002964 L42.2976943,23.8161003 C42.2976943,24.6309011 42.5038543,25.3978652 42.8656989,26.0666326 L42.4913912,25.97159 C40.0999354,25.3641166 37.9840173,24.04456 36.3723343,22.1557992 C35.8386032,21.5303477 35.0957002,21.1617423 34.2804076,21.1180059 C33.4653227,21.0739541 32.6879385,21.3611845 32.0918921,21.926078 C31.0231836,22.9387439 30.8467273,24.6204927 31.6814416,25.8378576 L32.7393487,27.3809325 C33.5102936,28.5052524 34.4380655,29.5071945 35.4867291,30.3578465 L19.0385894,30.3578465 C18.4649765,30.3578465 18,30.8286436 18,31.4092023 C18,31.989761 18.4649765,32.4605581 19.0385894,32.4605581 L38.9660035,32.4605581 C38.9710926,32.4605581 38.975974,32.4598221 38.9810631,32.4598221 L41.146418,33.5000336 L41.146418,42.1534279 L41.146418,52.9486442 C41.146418,53.5292029 41.6113945,54 42.1850074,54 L52.9614106,54 C53.5350235,54 54,53.5292029 54,52.9486442 L54,42.1533227 L54,31.0496386 C54,29.1102025 52.8172544,27.4459063 51.1438792,26.7546398 Z M44.3749769,22.7002964 C44.3749769,21.2679293 45.5260455,20.1027116 46.9410197,20.1027116 L47.523876,20.1027116 C48.9387463,20.1027116 50.0899188,21.2679293 50.0899188,22.7002964 L50.0899188,23.8161003 C50.0899188,25.2293328 48.9689693,26.3818291 47.579856,26.4122133 L46.8851436,26.4122133 C45.4960303,26.3819342 44.3750808,25.229438 44.3750808,23.8161003 L44.3750808,22.7002964 L44.3749769,22.7002964 Z M51.9228213,51.8972884 L48.6117984,51.8972884 L48.6117984,47.5509835 C48.6117984,46.9704248 48.1468219,46.4996276 47.573209,46.4996276 C46.9995961,46.4996276 46.5346196,46.9704248 46.5346196,47.5509835 L46.5346196,51.8972884 L43.2235968,51.8972884 L43.2235968,43.2046785 L51.9228213,43.2046785 L51.9228213,51.8972884 Z M51.9228213,41.1019669 L43.2234929,41.1019669 L43.2234929,32.8351562 C43.2234929,32.4291226 42.9925106,32.0593607 42.6301468,31.8853613 L39.1271926,30.2025612 C37.2496307,29.3006031 35.6308853,27.910185 34.4458549,26.1818612 L33.3879477,24.6388914 C33.1366091,24.2722836 33.189681,23.7659507 33.5115399,23.4610575 C33.6910081,23.2909481 33.9253139,23.204001 34.1705248,23.2177738 C34.4160474,23.2309157 34.6396556,23.3419389 34.8003254,23.5302367 C36.692843,25.7482821 39.1775642,27.2976651 41.9859098,28.0111152 L43.8451925,28.4833842 C43.9277603,28.5044113 44.0127169,28.51503 44.0979851,28.51503 L46.8849358,28.51503 C46.9036304,28.5152403 46.9221173,28.5165019 46.9409158,28.5165019 L47.5237722,28.5165019 C47.5425706,28.5165019 47.5610575,28.5153454 47.5797521,28.51503 L49.41899,28.51503 C50.7995869,28.51503 51.9228213,29.6520713 51.9228213,31.0496386 L51.9228213,41.1019669 L51.9228213,41.1019669 Z" id="XMLID_947_" fill="#4E5A56"></path>
                <path d="M30.4261034,42.8754983 C30.9681724,42.062075 31.2873103,41.0745863 31.2873103,40.0100718 L31.2873103,39.0244222 C31.2873103,36.2539798 29.1319655,34 26.4827586,34 C23.8335517,34 21.6782069,36.2539798 21.6782069,39.0244222 L21.6782069,40.0100718 C21.6782069,41.0745863 21.9973448,42.062075 22.5394138,42.8754983 C20.6621379,42.934025 19.0087241,43.937741 18,45.4472097 C16.9912759,43.937741 15.3378621,42.9341332 13.4605862,42.8754983 C14.0026552,42.062075 14.3217931,41.0745863 14.3217931,40.0100718 L14.3217931,39.0244222 C14.3217931,36.2539798 12.1664483,34 9.51724138,34 C6.86803448,34 4.71268966,36.2539798 4.71268966,39.0244222 L4.71268966,40.0100718 C4.71268966,41.0745863 5.03182759,42.062075 5.57389655,42.8754983 C2.48493103,42.9718888 0,45.6277661 0,48.8811346 L0,52.9181763 C0,53.5155593 0.463137931,54 1.03448276,54 L18,54 L34.9655172,54 C35.5368621,54 36,53.5155593 36,52.9181763 L36,48.8811346 C36,45.6277661 33.515069,42.9718888 30.4261034,42.8754983 Z M6.78165517,39.0244222 C6.78165517,37.447015 8.00886207,36.1636475 9.51724138,36.1636475 C11.0256207,36.1636475 12.2528276,37.447015 12.2528276,39.0244222 L12.2528276,40.0100718 C12.2528276,41.587479 11.0256207,42.8708465 9.51724138,42.8708465 C8.00886207,42.8708465 6.78165517,41.587479 6.78165517,40.0100718 L6.78165517,39.0244222 Z M16.9656207,51.8363525 L2.06896552,51.8363525 L2.06896552,48.8811346 C2.06896552,46.7602192 3.71896552,45.0346021 5.74717241,45.0346021 L13.2874138,45.0346021 C15.3155172,45.0346021 16.9656207,46.760111 16.9656207,48.8811346 L16.9656207,51.8363525 L16.9656207,51.8363525 Z M23.7471724,39.0244222 C23.7471724,37.447015 24.9743793,36.1636475 26.4827586,36.1636475 C27.9911379,36.1636475 29.2183448,37.447015 29.2183448,39.0244222 L29.2183448,40.0100718 C29.2183448,41.587479 27.9911379,42.8708465 26.4827586,42.8708465 C24.9743793,42.8708465 23.7471724,41.587479 23.7471724,40.0100718 L23.7471724,39.0244222 Z M33.9311379,51.8363525 L19.0344828,51.8363525 L19.0344828,48.8811346 C19.0344828,46.7602192 20.6844828,45.0346021 22.7126897,45.0346021 L30.252931,45.0346021 C32.2810345,45.0346021 33.9311379,46.760111 33.9311379,48.8811346 L33.9311379,51.8363525 L33.9311379,51.8363525 Z" id="XMLID_997_" fill="#4E5A56"></path>
                <path d="M36.790932,8 L33.209068,8 C32.5412997,8 32,8.4477 32,9 C32,9.5523 32.5412997,10 33.209068,10 L36.790932,10 C37.4587003,10 38,9.5523 38,9 C38,8.4477 37.4587003,8 36.790932,8 Z" id="XMLID_1022_" fill="#D6BEA7"></path>
                <path d="M37.9248006,12 L30.0751994,12 C29.4813668,12 29,12.4477 29,13 C29,13.5523 29.4813668,14 30.0751994,14 L37.9248006,14 C38.5186332,14 39,13.5523 39,13 C39,12.4477 38.5186332,12 37.9248006,12 Z" id="XMLID_1024_" fill="#D6BEA7"></path>
                <path d="M24.1941986,18.4291185 L24.9446547,18.4291185 C25.5275219,18.4291185 26,17.9566404 26,17.3737732 C26,11.102278 20.897722,6 14.6261213,6 C14.0432541,6 13.570776,6.4724781 13.570776,7.05534532 L13.570776,7.80580138 C8.75755703,8.33305191 5,12.4226206 5,17.3738787 C5,22.681738 9.318262,27 14.6261213,27 C19.5773794,27 23.6669481,23.2423374 24.1941986,18.4291185 Z M15.6814666,8.17042319 C19.9480167,8.65630418 23.3436958,12.0518778 23.8295768,16.3185334 L15.6814666,16.3185334 L15.6814666,8.17042319 Z M13.570776,14.8259585 L10.1132536,11.3684361 C11.1045395,10.6215682 12.2861041,10.1153191 13.570776,9.93401076 L13.570776,14.8259585 Z M14.6261213,24.8893094 C10.4820968,24.8893094 7.11069065,21.5179032 7.11069065,17.3738787 C7.11069065,15.6816325 7.67329524,14.1185605 8.62078427,12.861011 L13.8798866,18.1201134 C13.8799922,18.1202189 13.8800977,18.1202189 13.8802032,18.1203244 C14.0711152,18.3111309 14.334846,18.429224 14.6261213,18.429224 L22.0660948,18.429224 C21.5511918,22.0751255 18.4118561,24.8893094 14.6261213,24.8893094 Z" id="XMLID_1100_" fill="#D6BEA7"></path>
            </g>
        </g>
    </g>
</svg>