<?xml version="1.0" encoding="UTF-8"?>
<svg width="104px" height="104px" viewBox="0 0 104 104" version="1.1" xmlns="http://www.w3.org/2000/svg" xmlns:xlink="http://www.w3.org/1999/xlink">
    <!-- Generator: Sketch 58 (84663) - https://sketch.com -->
    <title>11</title>
    <desc>Created with Sketch.</desc>
    <g id="Page-1" stroke="none" stroke-width="1" fill="none" fill-rule="evenodd">
        <g id="11" transform="translate(2.000000, 2.000000)">
            <circle id="Oval" stroke="#D6BEA7" stroke-width="3" fill="#FFFFFF" cx="50" cy="50" r="50"></circle>
            <g id="profits" transform="translate(22.000000, 22.000000)" fill-rule="nonzero">
                <path d="M21.9506617,42.9679271 C22.0840693,42.6351816 22.1530266,42.2795197 22.153928,41.9201913 L22.153928,40.0428835 C22.1516745,39.3480596 21.8947748,38.678902 21.4341582,38.1655756 C21.8947748,37.6522493 22.1516745,36.9830917 22.153928,36.2882678 L22.153928,34.41096 C22.153928,32.8558561 20.914049,31.5949982 19.3848199,31.5949982 L15.4903111,31.5949982 C20.304701,29.4683605 22.9899787,24.198057 21.9222676,18.971753 C20.8541058,13.7459074 16.3263618,10 11.0774958,10 C5.82862978,10 1.30088578,13.7459074 0.23272393,18.971753 C-0.834987136,24.198057 1.85029055,29.4683605 6.6646805,31.5949982 L2.77017163,31.5949982 C1.24094256,31.5949982 0.00106358169,32.8558561 0.00106358169,34.41096 L0.00106358169,36.2882678 C0.00331708182,36.9830917 0.260216789,37.6522493 0.720833337,38.1655756 C0.260216789,38.678902 0.00331708182,39.3480596 0.00106358169,40.0428835 L0.00106358169,41.9201913 C0.00647199584,43.1888407 0.845226862,44.297534 2.05040187,44.6270711 C1.91699433,44.9598167 1.84803696,45.3154785 1.84713561,45.6748069 L1.84713561,47.5521148 C1.84803696,47.9114432 1.91699433,48.2671051 2.05040187,48.5998506 C0.845226862,48.9293877 0.00647199584,50.038081 0.00106358169,51.3067304 L0.00106358169,53.1840383 C0.00106358169,54.7391421 1.24094256,56 2.77017163,56 L19.3848199,56 C20.914049,56 22.153928,54.7391421 22.153928,53.1840383 L22.153928,51.3067304 C22.1530266,50.947402 22.0840693,50.5917401 21.9506617,50.2589946 C23.1558367,49.9294575 23.9945916,48.8207642 24,47.5521148 L24,45.6748069 C23.9945916,44.4061575 23.1558367,43.2974642 21.9506617,42.9679271 Z M1.84713561,21.2698052 C1.84713561,16.0856673 5.9796147,11.8832661 11.0774958,11.8832661 C16.1753768,11.8832661 20.3078559,16.0856673 20.3078559,21.2698052 C20.3078559,26.4539431 16.1753768,30.6563443 11.0774958,30.6563443 C5.98186829,30.6508444 1.85254403,26.4516514 1.84713561,21.2698052 Z M1.84713561,34.41096 C1.84713561,33.892592 2.26042857,33.4723061 2.77017163,33.4723061 L19.3848199,33.4723061 C19.894563,33.4723061 20.3078559,33.892592 20.3078559,34.41096 L20.3078559,36.2882678 C20.3078559,36.8066358 19.894563,37.2269217 19.3848199,37.2269217 L19.3848199,35.3496139 L17.5387479,35.3496139 L17.5387479,37.2269217 L15.6926759,37.2269217 L15.6926759,35.3496139 L13.8466038,35.3496139 L13.8466038,37.2269217 L12.0005318,37.2269217 L12.0005318,35.3496139 L10.1544598,35.3496139 L10.1544598,37.2269217 L8.30838773,37.2269217 L8.30838773,35.3496139 L6.46231569,35.3496139 L6.46231569,37.2269217 L4.61624366,37.2269217 L4.61624366,35.3496139 L2.77017163,35.3496139 L2.77017163,37.2269217 C2.26042857,37.2269217 1.84713561,36.8066358 1.84713561,36.2882678 L1.84713561,34.41096 Z M1.84713561,41.9201913 L1.84713561,40.0428835 C1.84713561,39.5245155 2.26042857,39.1042296 2.77017163,39.1042296 L19.3848199,39.1042296 C19.894563,39.1042296 20.3078559,39.5245155 20.3078559,40.0428835 L20.3078559,41.9201913 C20.3078559,42.4385593 19.894563,42.8588452 19.3848199,42.8588452 L19.3848199,40.9815374 L17.5387479,40.9815374 L17.5387479,42.8588452 L15.6926759,42.8588452 L15.6926759,40.9815374 L13.8466038,40.9815374 L13.8466038,42.8588452 L12.0005318,42.8588452 L12.0005318,40.9815374 L10.1544598,40.9815374 L10.1544598,42.8588452 L8.30838773,42.8588452 L8.30838773,40.9815374 L6.46231569,40.9815374 L6.46231569,42.8588452 L4.61624366,42.8588452 L4.61624366,40.9815374 L2.77017163,40.9815374 L2.77017163,42.8588452 C2.26042857,42.8588452 1.84713561,42.4385593 1.84713561,41.9201913 Z M20.3078559,53.1840383 C20.3078559,53.7024062 19.894563,54.1226922 19.3848199,54.1226922 L19.3848199,52.2453843 L17.5387479,52.2453843 L17.5387479,54.1226922 L15.6926759,54.1226922 L15.6926759,52.2453843 L13.8466038,52.2453843 L13.8466038,54.1226922 L12.0005318,54.1226922 L12.0005318,52.2453843 L10.1544598,52.2453843 L10.1544598,54.1226922 L8.30838773,54.1226922 L8.30838773,52.2453843 L6.46231569,52.2453843 L6.46231569,54.1226922 L4.61624366,54.1226922 L4.61624366,52.2453843 L2.77017163,52.2453843 L2.77017163,54.1226922 C2.26042857,54.1226922 1.84713561,53.7024062 1.84713561,53.1840383 L1.84713561,51.3067304 C1.84713561,50.7883624 2.26042857,50.3680765 2.77017163,50.3680765 L19.3848199,50.3680765 C19.894563,50.3680765 20.3078559,50.7883624 20.3078559,51.3067304 L20.3078559,53.1840383 Z M22.153928,47.5521148 C22.153928,48.0704828 21.740635,48.4907687 21.230892,48.4907687 L21.230892,46.6134609 L19.3848199,46.6134609 L19.3848199,48.4907687 L17.5387479,48.4907687 L17.5387479,46.6134609 L15.6926759,46.6134609 L15.6926759,48.4907687 L13.8466038,48.4907687 L13.8466038,46.6134609 L12.0005318,46.6134609 L12.0005318,48.4907687 L10.1544598,48.4907687 L10.1544598,46.6134609 L8.30838773,46.6134609 L8.30838773,48.4907687 L6.46231569,48.4907687 L6.46231569,46.6134609 L4.61624366,46.6134609 L4.61624366,48.4907687 C4.1065006,48.4907687 3.69320765,48.0704828 3.69320765,47.5521148 L3.69320765,45.6748069 C3.69320765,45.156439 4.1065006,44.736153 4.61624366,44.736153 L21.230892,44.736153 C21.740635,44.736153 22.153928,45.156439 22.153928,45.6748069 L22.153928,47.5521148 Z" id="Shape" fill="#4D5954"></path>
                <path d="M12.375,28 L12.375,26.0499093 C13.8985596,25.7465821 15,24.6783621 15,23.3571429 C15,21.795166 13.4627685,20.5714286 11.5,20.5714286 C10.4314575,20.5714286 9.75,20.0219029 9.75,19.6428571 C9.75,19.2638114 10.4314575,18.7142857 11.5,18.7142857 C12.5685425,18.7142857 13.25,19.2638114 13.25,19.6428571 L15,19.6428571 C15,18.3234514 13.8985596,17.255685 12.375,16.9500907 L12.375,15 L10.625,15 L10.625,16.9500907 C9.10144037,17.2534179 8,18.3216379 8,19.6428571 C8,21.204834 9.5372315,22.4285714 11.5,22.4285714 C12.5685425,22.4285714 13.25,22.9780971 13.25,23.3571429 C13.25,23.7361886 12.5685425,24.2857143 11.5,24.2857143 C10.4314575,24.2857143 9.75,23.7361886 9.75,23.3571429 L8,23.3571429 C8,24.6765486 9.10144037,25.744315 10.625,26.0499093 L10.625,28 L12.375,28 Z" id="Path" fill="#D6BEA7"></path>
                <path d="M44.2348845,0 L13,0 L13,9.33333333 L14.8695652,9.33333333 L14.8695652,1.86666667 L42.9130435,1.86666667 L42.9130435,13.0666667 L54.1304348,13.0666667 L54.1304348,54.1333333 L24.2173913,54.1333333 L24.2173913,56 L56,56 L56,11.746875 L44.2348845,0 Z M44.7826087,3.18645833 L52.8085937,11.2 L44.7826087,11.2 L44.7826087,3.18645833 Z" id="Shape" fill="#4D5954"></path>
                <path d="M50.1538462,46.2105263 L50.1538462,31 L44.6153846,31 L44.6153846,46.2105263 L42.7692308,46.2105263 L42.7692308,34.5789474 L37.2307692,34.5789474 L37.2307692,46.2105263 L35.3846154,46.2105263 L35.3846154,38.1578947 L29.8461538,38.1578947 L29.8461538,46.2105263 L28,46.2105263 L28,48 L52,48 L52,46.2105263 L50.1538462,46.2105263 Z M31.6923077,46.2105263 L31.6923077,39.9473684 L33.5384615,39.9473684 L33.5384615,46.2105263 L31.6923077,46.2105263 Z M46.4615385,32.7894737 L48.3076923,32.7894737 L48.3076923,46.2105263 L46.4615385,46.2105263 L46.4615385,32.7894737 Z M39.0769231,36.3684211 L40.9230769,36.3684211 L40.9230769,46.2105263 L39.0769231,46.2105263 L39.0769231,36.3684211 Z" id="Shape" fill="#4D5954"></path>
                <polygon id="Path" fill="#D6BEA7" points="42.5770609 21 42.5770609 22.8887181 45.8673835 22.8887181 40.7419355 28.1638488 37.0716846 24.3864125 30 31.6646173 31.297491 33 37.0716846 27.057178 40.7419355 30.8346142 47.1648746 24.2241008 47.1648746 27.6105134 49 27.6105134 49 21"></polygon>
                <polygon id="Path" fill="#4D5954" points="24 7 26 7 26 9 24 9"></polygon>
                <polygon id="Path" fill="#D6BEA7" points="29 7 40 7 40 9 29 9"></polygon>
                <polygon id="Path" fill="#4D5954" points="24 11 26 11 26 13 24 13"></polygon>
                <polygon id="Path" fill="#D6BEA7" points="29 11 40 11 40 13 29 13"></polygon>
                <polygon id="Path" fill="#4D5954" points="24 15 26 15 26 17 24 17"></polygon>
                <polygon id="Path" fill="#D6BEA7" points="29 15 40 15 40 17 29 17"></polygon>
            </g>
        </g>
    </g>
</svg>